<?xml version="1.0" encoding="utf-8"?>
<!-- Generator: Adobe Illustrator 22.1.0, SVG Export Plug-In . SVG Version: 6.00 Build 0)  -->
<svg version="1.1" id="Layer_1" xmlns="http://www.w3.org/2000/svg" xmlns:xlink="http://www.w3.org/1999/xlink" x="0px" y="0px"
	 viewBox="0 0 384.9 232.8" style="enable-background:new 0 0 384.9 232.8;" xml:space="preserve">
<style type="text/css">
	.st0{fill:#FFFFFF;}
	.st1{clip-path:url(#SVGID_2_);}
	.st2{fill:#CACCC6;}
	.st3{clip-path:url(#SVGID_4_);}
</style>
<rect class="st0" width="384.9" height="232.8"/>
<path d="M100.2,133.9c1.3,4.5,5.4,6.8,11.3,6.8c5.2,0,9.2-1.9,9.2-5.9c0-3.1-2.4-4-5.9-4.8L96,126.2c-14-2.8-24.1-10-24.1-25.9
	c0-19.3,16.4-31.1,37.5-31.1c23.9,0,37,13.4,39.2,29.6h-28.1c-1.5-4.2-4.9-7-11-7c-5.1,0-8.5,1.8-8.5,5.2c0,2.8,2.2,4,5.1,4.6
	l19,4.5c16.4,3.9,24.5,12.6,24.5,26.9c0,19.6-16.9,30.5-37.5,30.5c-23.3,0-39-11-42.1-29.6H100.2z"/>
<path d="M205.1,70.7h30L202.4,132v30h-29v-30l-32.3-61.3h31.2l16.4,32.6L205.1,70.7z"/>
<path d="M266,137l0,25l-28.4,0l0.1-91.3l42.8,0.1c20.2,0,34.3,11.9,34.3,33.2c0,21.3-14.2,33.1-34.4,33.1L266,137z M276.6,94.7
	l-10.6,0l0,18.4l10.6,0c7.4,0,10.4-3.6,10.4-9.2C287,98.3,284,94.7,276.6,94.7z"/>
</svg>
