<svg id="Layer_1" data-name="Layer 1" xmlns="http://www.w3.org/2000/svg" viewBox="0 0 252.78 252.78"><defs><style>.cls-1{stroke:#fff;stroke-miterlimit:10;}.cls-2,.cls-3{font-size:30px;fill:#fff;}.cls-2{font-family:Ogg-Roman, Ogg;}.cls-3{font-family:MatrixIIOrnamentsOT-Reg, Matrix II Ornaments OT;}</style></defs><title>circle</title><circle class="cls-1" cx="126.39" cy="126.39" r="125.89"/><text class="cls-2" transform="matrix(0.83, -0.56, 0.56, 0.83, 72.29, 60.97)">S</text><text class="cls-2" transform="translate(85.43 51.62) rotate(-21.26)">C</text><text class="cls-2" transform="translate(105.58 43.85) rotate(-7.82)">R</text><text class="cls-2" transform="translate(122.28 41.13) rotate(4.56)">O</text><text class="cls-2" transform="matrix(0.95, 0.31, -0.31, 0.95, 144.91, 43.2)">L</text><text class="cls-2" transform="translate(161.38 48.56) rotate(30.03)">L</text><text class="cls-2" transform="matrix(0.78, 0.63, -0.63, 0.78, 176.4, 57.57)"> </text><text class="cls-3" transform="matrix(0.65, 0.76, -0.76, 0.65, 183.48, 62.25)">2</text><text class="cls-2" transform="translate(198.35 80.67) rotate(60.29)"> </text><text class="cls-2" transform="translate(202.71 88.25) rotate(66.17)"> </text><text class="cls-2" transform="translate(206.28 96.27) rotate(72.1)"> </text><text class="cls-2" transform="translate(208.99 104.58) rotate(78.03)"> </text><text class="cls-2" transform="translate(211.09 112.92) rotate(86.39)">S</text><text class="cls-2" transform="translate(212.5 129.02) rotate(99.05)">C</text><text class="cls-2" transform="translate(209.04 150.31) rotate(112.41)">R</text><text class="cls-2" transform="matrix(-0.58, 0.82, -0.82, -0.58, 203.06, 166.18)">O</text><text class="cls-2" transform="translate(189.76 184.59) rotate(138.7)">L</text><text class="cls-2" transform="translate(176.81 196.1) rotate(150.26)">L</text><text class="cls-2" transform="translate(161.45 204.54) rotate(159.04)"> </text><text class="cls-3" transform="matrix(-0.98, 0.18, -0.18, -0.98, 153.87, 208.31)">2</text><text class="cls-2" transform="translate(130.49 211.84) rotate(-179.32)"> </text><text class="cls-2" transform="matrix(-0.99, -0.11, 0.11, -0.99, 121.71, 211.76)"> </text><text class="cls-2" transform="translate(113 210.79) rotate(-167.64)"> </text><text class="cls-2" transform="translate(104.42 208.94) rotate(-161.72)"> </text><text class="cls-2" transform="translate(96.17 206.56) rotate(-153.35)">S</text><text class="cls-2" transform="matrix(-0.77, -0.64, 0.64, -0.77, 81.57, 199.68)">C</text><text class="cls-2" transform="translate(64.94 185.9) rotate(-127.27)">R</text><text class="cls-2" transform="translate(54.27 172.74) rotate(-114.45)">O</text><text class="cls-2" transform="translate(45.04 151.98) rotate(-100.99)">L</text><text class="cls-2" transform="matrix(0.01, -1, 1, 0.01, 41.65, 134.99)">L</text><text class="cls-2" transform="translate(42.14 117.5) rotate(-80.68)"> </text><text class="cls-3" transform="translate(42.71 109.02) rotate(-69.88)">2</text><text class="cls-2" transform="translate(51.45 87.03) rotate(-59.03)"> </text></svg>