<?xml version="1.0" encoding="utf-8"?>
<!-- Generator: Adobe Illustrator 22.1.0, SVG Export Plug-In . SVG Version: 6.00 Build 0)  -->
<svg version="1.1" id="Layer_1" xmlns="http://www.w3.org/2000/svg" xmlns:xlink="http://www.w3.org/1999/xlink" x="0px" y="0px"
	 viewBox="0 0 500 500" style="enable-background:new 0 0 500 500;" xml:space="preserve">
<style type="text/css">
	.st0{fill:#FFFFFF;stroke:#000000;stroke-miterlimit:10;}
	.st1{fill:#FFFFFF;}
	.st2{font-family:'NHaasGroteskDSPro-75Bd';}
	.st3{font-size:131.63px;}
	.st4{fill:#EB068C;}
</style>
<rect x="-13.2" y="-13.2" class="st0" width="526.4" height="526.4"/>
<title>lets-thumbnail</title>
<text transform="matrix(1 0 0 1 216.8293 296.89)" class="st1 st2 st3">s</text>
<g>
	<circle class="st4" cx="250" cy="221.2" r="181.8"/>
	<circle class="st4" cx="250" cy="221.2" r="155.2"/>
	<g>
		<path class="st1" d="M126.5,209.8h23.3v74.4h42.3v19.7h-65.6V209.8z"/>
		<path class="st1" d="M231.8,305.9c-5.5,0-10.5-0.9-15-2.7c-4.5-1.8-8.2-4.3-11.3-7.5s-5.4-7-7.1-11.4s-2.5-9.1-2.5-14.2
			c0-5,0.8-9.7,2.5-14c1.7-4.3,4-8.1,7.1-11.3s6.7-5.7,10.9-7.5c4.2-1.8,8.9-2.7,14.1-2.7c4.8,0,9.1,0.7,13,2.2
			c3.8,1.5,7.2,3.6,10.1,6.2c4,3.7,7,8.4,9,14c2,5.7,2.9,11.9,2.8,18.8H217c0.7,4.6,2.3,8.2,4.7,10.8c2.5,2.6,5.9,3.9,10.4,3.9
			c2.8,0,5.1-0.6,7-1.8c1.8-1.2,3.2-2.8,4.2-4.9h20.9c-0.7,3.1-2,6-3.9,8.8s-4.4,5.2-7.4,7.2c-2.8,2-5.9,3.6-9.4,4.6
			C240,305.4,236.1,305.9,231.8,305.9z M243.6,263c-0.4-4-1.8-7.2-4.1-9.6c-2.3-2.4-5.2-3.6-8.7-3.6c-4.1,0-7.3,1.2-9.5,3.6
			c-2.2,2.4-3.6,5.6-4.3,9.6H243.6z"/>
		<path class="st1" d="M298,304.7c-3.2,0-6-0.3-8.6-0.9s-4.8-1.6-6.8-3c-1.9-1.4-3.4-3.3-4.5-5.7c-1.1-2.4-1.6-5.4-1.6-9v-36.2h-9
			v-13.4h9v-21.3h20.9v21.3h12.2v13.4h-12.2v31.6c0,2.6,0.7,4.4,2,5.3c1.4,0.9,3.2,1.3,5.5,1.3c1,0,1.9,0,2.8-0.1
			c0.9,0,1.5-0.1,2-0.1v15.7c-1,0.3-2.4,0.5-4.4,0.7C303.3,304.6,300.9,304.7,298,304.7z"/>
		<path class="st1" d="M347.5,306c-9.9,0-17.8-2.1-23.6-6.4c-5.8-4.3-8.9-10.1-9.2-17.6H335c0.4,3.3,1.7,5.8,3.8,7.5
			c2.1,1.7,5,2.5,8.6,2.5c3.2,0,5.8-0.6,7.7-1.7c1.9-1.1,2.8-2.8,2.8-5c0-1.5-0.5-2.7-1.4-3.6c-1-0.9-2.2-1.7-3.8-2.2
			c-1.6-0.6-3.4-1-5.5-1.3s-4.2-0.7-6.4-1.1c-2.9-0.5-5.8-1.2-8.7-1.9c-2.9-0.7-5.5-1.9-7.8-3.4s-4.2-3.5-5.6-6s-2.1-5.7-2.1-9.7
			c0-3.5,0.8-6.6,2.3-9.3s3.6-5,6.3-6.8c2.6-1.8,5.7-3.2,9.3-4.1c3.6-0.9,7.3-1.4,11.3-1.4c9.6,0,16.9,1.9,22,5.8
			c5.1,3.9,7.9,9.1,8.4,15.8h-19.7c-0.4-3.1-1.6-5.2-3.5-6.3s-4.3-1.6-7.3-1.6c-2.6,0-4.9,0.5-6.6,1.5c-1.8,1-2.7,2.6-2.7,4.7
			c0,1.2,0.4,2.2,1.3,2.9c0.9,0.7,2.1,1.3,3.6,1.8s3.2,0.9,5.2,1.2c2,0.4,4,0.7,6.1,1.1c3,0.5,6,1.2,9,1.9c3,0.7,5.8,1.9,8.3,3.5
			s4.5,3.7,6.1,6.4c1.6,2.7,2.4,6.2,2.4,10.5c0,3.7-0.8,6.9-2.3,9.7c-1.5,2.8-3.7,5.1-6.4,7c-2.7,1.8-6,3.2-9.7,4.2
			C356,305.5,351.9,306,347.5,306z"/>
	</g>
	<path class="st1" d="M175.1,113.5c13.8,16.6-20.8,52.1-42.2,50.3c-14.2-1.2-19.9-21,0-42.3C151.7,104,169.2,106.4,175.1,113.5"/>
</g>
<g>
	<path class="st4" d="M192.3,448.4h-2.5v6.1l1.4,1.4h-4.7l1.4-1.4v-14.7l-1.4-1.4h5.8c3.5,0,6.1,1.9,6.1,5S195.8,448.4,192.3,448.4z
		 M192.3,439.7h-2.5v7.4h2.5c2.5,0,4-1.6,4-3.7C196.2,441.3,194.7,439.7,192.3,439.7z"/>
	<path class="st4" d="M205.3,444.5l-2.3,2.3v7.9l1.3,1.3h-4.4l1.3-1.3v-9l-1.2-1.2l3.1-1.4v2.6l1.1-1.2c0.6-0.6,1.4-1.4,2.7-1.4
		c0.2,0,0.7,0.1,1,0.2v3.8L205.3,444.5z"/>
	<path class="st4" d="M215.1,456.2c-3.5,0-5.8-3.2-5.8-6.6s2.3-6.6,5.8-6.6s5.8,3.2,5.8,6.6S218.5,456.2,215.1,456.2z M215.1,444.1
		c-2.6,0-3.5,2.8-3.5,5.5s0.9,5.5,3.5,5.5s3.5-2.8,3.5-5.5C218.6,447,217.7,444.1,215.1,444.1z"/>
	<path class="st4" d="M222.9,460.8h-3.1l1.8-2.2l1.3,1.3c0.8-0.3,1.3-0.9,1.3-1.8v-12.5l-1.2-1.2l3.1-1.4v13.9
		C226.1,459.2,224.5,460.8,222.9,460.8z M225.2,440.8c-0.6,0-1.1-0.5-1.1-1.1s0.5-1.1,1.1-1.1s1.1,0.5,1.1,1.1
		S225.7,440.8,225.2,440.8z"/>
	<path class="st4" d="M231.6,449.4c0,3.3,1.3,5.6,3.8,5.6c1.4,0,2.6-0.8,3.4-1.7l0.6,0.6c-0.6,0.8-2,2.3-4.4,2.3
		c-3.9,0-5.5-3.3-5.5-6.5c0-3.3,1.8-6.6,5.4-6.6c3.4,0,5.3,2.9,4.4,6.4L231.6,449.4L231.6,449.4z M234.9,444.1
		c-2.3,0-3.1,2.3-3.2,4.2h5.7c0.1-0.2,0.2-0.7,0.2-1.4C237.6,445.4,236.5,444.1,234.9,444.1z"/>
	<path class="st4" d="M247,456.2c-3.4,0-5.3-3.2-5.3-6.6c0-3.2,1.9-6.6,5.2-6.6c1.7,0,2.8,0.4,4,1v2.9l-2.1-2.1
		c-0.4-0.4-1.1-0.7-1.8-0.7c-2.5,0-3.1,3-3.1,5.3c0,3.6,1.5,5.6,3.8,5.6c0.8,0,2-0.5,2.6-1.1l0.6,0.6
		C249.8,455.7,248.7,456.2,247,456.2z"/>
	<path class="st4" d="M256.4,444.5v10c0.2,0.3,0.6,0.5,1,0.5c0.6,0,0.9-0.3,1.4-1l0.5,0.5c-0.2,0.7-1.2,1.7-2.4,1.7
		c-1.4,0-2.3-1.1-2.3-2.6v-9.1h-2.2l4.2-4.2v3.1h3v1.1H256.4z"/>
	<path class="st4" d="M266.5,438.2h4.4v13.9h7.9v3.7h-12.3V438.2z"/>
	<path class="st4" d="M286.2,456.3c-1,0-2-0.2-2.8-0.5s-1.5-0.8-2.1-1.4s-1-1.3-1.3-2.1c-0.3-0.8-0.5-1.7-0.5-2.7
		c0-0.9,0.2-1.8,0.5-2.6s0.8-1.5,1.3-2.1s1.3-1.1,2-1.4c0.8-0.3,1.7-0.5,2.6-0.5s1.7,0.1,2.4,0.4c0.7,0.3,1.3,0.7,1.9,1.2
		c0.8,0.7,1.3,1.6,1.7,2.6c0.4,1.1,0.5,2.2,0.5,3.5h-9.1c0.1,0.9,0.4,1.5,0.9,2s1.1,0.7,2,0.7c0.5,0,1-0.1,1.3-0.3
		c0.3-0.2,0.6-0.5,0.8-0.9h3.9c-0.1,0.6-0.4,1.1-0.7,1.6c-0.4,0.5-0.8,1-1.4,1.3c-0.5,0.4-1.1,0.7-1.8,0.9
		C287.8,456.2,287.1,456.3,286.2,456.3z M288.5,448.2c-0.1-0.8-0.3-1.4-0.8-1.8c-0.4-0.4-1-0.7-1.6-0.7c-0.8,0-1.4,0.2-1.8,0.7
		c-0.4,0.4-0.7,1-0.8,1.8H288.5z"/>
	<path class="st4" d="M298.7,456c-0.6,0-1.1-0.1-1.6-0.2s-0.9-0.3-1.3-0.6c-0.4-0.3-0.6-0.6-0.8-1.1c-0.2-0.5-0.3-1-0.3-1.7v-6.8
		H293v-2.5h1.7v-4h3.9v4h2.3v2.5h-2.3v5.9c0,0.5,0.1,0.8,0.4,1s0.6,0.2,1,0.2c0.2,0,0.4,0,0.5,0c0.2,0,0.3,0,0.4,0v2.9
		c-0.2,0-0.5,0.1-0.8,0.1C299.7,456,299.2,456,298.7,456z"/>
	<path class="st4" d="M307.9,456.3c-1.9,0-3.3-0.4-4.4-1.2c-1.1-0.8-1.7-1.9-1.7-3.3h3.8c0.1,0.6,0.3,1.1,0.7,1.4s0.9,0.5,1.6,0.5
		c0.6,0,1.1-0.1,1.4-0.3c0.4-0.2,0.5-0.5,0.5-0.9c0-0.3-0.1-0.5-0.3-0.7c-0.2-0.2-0.4-0.3-0.7-0.4c-0.3-0.1-0.6-0.2-1-0.2
		s-0.8-0.1-1.2-0.2c-0.5-0.1-1.1-0.2-1.6-0.4s-1-0.3-1.5-0.6c-0.4-0.3-0.8-0.7-1-1.1c-0.3-0.5-0.4-1.1-0.4-1.8
		c0-0.7,0.1-1.2,0.4-1.8c0.3-0.5,0.7-0.9,1.2-1.3c0.5-0.3,1.1-0.6,1.7-0.8c0.7-0.2,1.4-0.3,2.1-0.3c1.8,0,3.2,0.4,4.1,1.1
		c1,0.7,1.5,1.7,1.6,3h-3.7c-0.1-0.6-0.3-1-0.7-1.2c-0.4-0.2-0.8-0.3-1.4-0.3c-0.5,0-0.9,0.1-1.2,0.3c-0.3,0.2-0.5,0.5-0.5,0.9
		c0,0.2,0.1,0.4,0.2,0.5s0.4,0.2,0.7,0.3c0.3,0.1,0.6,0.2,1,0.2c0.4,0.1,0.8,0.1,1.1,0.2c0.6,0.1,1.1,0.2,1.7,0.4s1.1,0.4,1.6,0.7
		c0.5,0.3,0.9,0.7,1.1,1.2c0.3,0.5,0.4,1.2,0.4,2c0,0.7-0.1,1.3-0.4,1.8s-0.7,1-1.2,1.3s-1.1,0.6-1.8,0.8
		C309.5,456.2,308.8,456.3,307.9,456.3z"/>
</g>
</svg>
