<svg id="Layer_1" data-name="Layer 1" xmlns="http://www.w3.org/2000/svg" viewBox="0 0 806.2 1128.68"><defs><style>.cls-1{fill:#ffc2b8;}.cls-2{fill:#292852;}</style></defs><title>Eye-Exam</title><rect class="cls-1" width="806.2" height="1128.68"/><path class="cls-2" d="M692.51,1059.13c-1.1,2.76-3.4,4.18-6.65,4.18-4.77,0-7.15-3.42-7.15-7.55s2.38-7.56,7.15-7.56c3.25,0,5.55,1.43,6.65,4.19l-3.23,1.31a3.65,3.65,0,0,0-3.42-2.42c-2.27,0-3.37,1.89-3.37,4.48s1.1,4.47,3.37,4.47a3.64,3.64,0,0,0,3.42-2.41Z"/><path class="cls-2" d="M710.34,1063.08v-14.64H714v2.38a5.09,5.09,0,0,1,4.33-2.62,6.13,6.13,0,0,1,1.77.29l-.67,3.35a2.73,2.73,0,0,0-1.51-.41c-2.09,0-3.92,1.71-3.92,6.45v5.2Z"/><path class="cls-2" d="M734.57,1056.92H724.49a3.36,3.36,0,0,0,3.46,3.31,3.79,3.79,0,0,0,3.54-2.26l2.91,1.07a6.63,6.63,0,0,1-6.66,4.27c-5,0-7-4.09-7-7.55s2-7.56,7-7.56,6.83,4,6.83,7.24Zm-10-2.85h6.3a3.14,3.14,0,0,0-3.14-2.79A3.23,3.23,0,0,0,724.58,1054.07Z"/><path class="cls-2" d="M696.92,1048a2.44,2.44,0,1,1-2.44,2.44A2.38,2.38,0,0,1,696.92,1048Z"/><path class="cls-2" d="M705.36,1048a2.44,2.44,0,1,1-2.45,2.44A2.38,2.38,0,0,1,705.36,1048Z"/><path class="cls-2" d="M703.68,1055.83v1.07c0,1.76-1,3.33-2.62,3.33l0,0,0,0c-1.79,0-2.51-1.57-2.51-3.33v-1.07H694.9v2c0,3.29,2.18,5.48,6.16,5.48s6.23-2.19,6.23-5.48v-2Z"/><rect class="cls-2" x="187.35" y="626.95" width="431.69" height="15.23"/><rect class="cls-2" x="187.35" y="996.63" width="431.69" height="15.23"/><path class="cls-2" d="M725.79,133.56v-2.4l4.14-2.5h1v15.06h-2.36V131.9Z"/><path class="cls-2" d="M725.7,279.21v-1l5.51-7.11a6.32,6.32,0,0,0,.94-1.48,3.55,3.55,0,0,0,.24-1.31,2.48,2.48,0,0,0-.52-1.66,1.91,1.91,0,0,0-1.54-.62,2,2,0,0,0-1.52.62,2.79,2.79,0,0,0-.71,1.66L726,268a4,4,0,0,1,1.34-2.84,4.37,4.37,0,0,1,3-1.13,4.51,4.51,0,0,1,3.19,1.15,4.1,4.1,0,0,1,1.23,3.14,5.35,5.35,0,0,1-1.25,3.42l-4.33,5.43H735v2.09Z"/><path class="cls-2" d="M725.45,412.05l2.15-.28c.28,1.68,1.18,2.53,2.72,2.53a2.61,2.61,0,0,0,1.95-.77,2.92,2.92,0,0,0,.74-2.13,3,3,0,0,0-.74-2.16,2.61,2.61,0,0,0-1.95-.76,3.39,3.39,0,0,0-1.32.29l-.9-1.19,3.12-4.33h-5.06v-2.09h8.41V402l-3.72,5a2.88,2.88,0,0,1,.63-.07,3.5,3.5,0,0,1,2.82,1.28,4.87,4.87,0,0,1,1.07,3.26,4.76,4.76,0,0,1-1.45,3.57,5.21,5.21,0,0,1-6.94.19A4.34,4.34,0,0,1,725.45,412.05Z"/><path class="cls-2" d="M725.57,534.11v-1.05l6.36-11h2.41v10H736v2.09h-1.68v3H732v-3Zm2.76-2.09H732v-6.54Z"/><path class="cls-2" d="M725.8,729.1l2.15-.4a3,3,0,0,0,.85,1.85,2.36,2.36,0,0,0,1.62.59,2.27,2.27,0,0,0,1.87-.81,4,4,0,0,0,0-4.37,2.26,2.26,0,0,0-1.88-.81,3.47,3.47,0,0,0-2.87,1.54l-1.43-.29L727,718h7.49v2.09h-5.57l-.45,3.73a3.22,3.22,0,0,1,2.2-.77,4.36,4.36,0,0,1,3.46,1.41,5.37,5.37,0,0,1,1.23,3.67,5.14,5.14,0,0,1-1.33,3.67,5.14,5.14,0,0,1-6.71.33A4.48,4.48,0,0,1,725.8,729.1Z"/><path class="cls-2" d="M725.76,825.89a5.39,5.39,0,0,1,.73-2.72l4.54-7.75h2.55l-3.3,5.66a1.23,1.23,0,0,1,.51-.1,4.49,4.49,0,0,1,3.42,1.39,4.85,4.85,0,0,1,1.33,3.52,4.76,4.76,0,0,1-1.41,3.51,5,5,0,0,1-7,0A4.8,4.8,0,0,1,725.76,825.89Zm2.36,0a2.92,2.92,0,0,0,.71,2,2.49,2.49,0,0,0,3.64,0,3,3,0,0,0,.71-2,2.89,2.89,0,0,0-.7-2.06,2.58,2.58,0,0,0-3.66,0A2.89,2.89,0,0,0,728.12,825.89Z"/><path class="cls-2" d="M724.69,915.26v-2.09h8.9v1.05l-5.75,14h-2.29l5.35-13Z"/><path class="cls-2" d="M68.3,141.83a11.78,11.78,0,0,1,0-11.29,5,5,0,0,1,8.12,0,11.78,11.78,0,0,1,0,11.29,5,5,0,0,1-8.12,0ZM70,132a8.88,8.88,0,0,0-.78,4.14,9,9,0,0,0,.78,4.16,2.53,2.53,0,0,0,2.36,1.45,2.5,2.5,0,0,0,2.34-1.45,9,9,0,0,0,.78-4.16,8.88,8.88,0,0,0-.78-4.14,2.51,2.51,0,0,0-2.34-1.46A2.54,2.54,0,0,0,70,132Z"/><path class="cls-2" d="M81.35,143.36a1.64,1.64,0,0,1,0-2.26,1.55,1.55,0,0,1,2.2,0,1.64,1.64,0,0,1,0,2.26,1.55,1.55,0,0,1-2.2,0Z"/><path class="cls-2" d="M87.51,133.56v-2.4l4.15-2.5h1v15.06H90.25V131.9Z"/><path class="cls-2" d="M63.73,277.32a11.78,11.78,0,0,1,0-11.29,5,5,0,0,1,8.11,0,11.78,11.78,0,0,1,0,11.29,5,5,0,0,1-8.11,0Zm1.71-9.79a8.75,8.75,0,0,0-.79,4.14,8.84,8.84,0,0,0,.79,4.16,2.63,2.63,0,0,0,4.7,0,9,9,0,0,0,.78-4.16,8.88,8.88,0,0,0-.78-4.14,2.62,2.62,0,0,0-4.7,0Z"/><path class="cls-2" d="M76.77,278.85a1.64,1.64,0,0,1,0-2.26,1.55,1.55,0,0,1,2.2,0,1.64,1.64,0,0,1,0,2.26,1.55,1.55,0,0,1-2.2,0Z"/><path class="cls-2" d="M82.72,276.22v-1l6.36-11h2.41v10h1.68v2.08H91.49v3H89.13v-3Zm2.76-2.08h3.65V267.6Z"/><path class="cls-2" d="M64.09,414.33a11.86,11.86,0,0,1,0-11.29,5.06,5.06,0,0,1,8.12,0,11.78,11.78,0,0,1,0,11.29,5,5,0,0,1-8.12,0Zm1.71-9.79a11.43,11.43,0,0,0,0,8.3,2.54,2.54,0,0,0,2.36,1.46,2.51,2.51,0,0,0,2.34-1.46,11.43,11.43,0,0,0,0-8.3,2.5,2.5,0,0,0-2.34-1.45A2.53,2.53,0,0,0,65.8,404.54Z"/><path class="cls-2" d="M77.14,415.86a1.55,1.55,0,0,1-.45-1.13,1.57,1.57,0,0,1,.45-1.13,1.55,1.55,0,0,1,2.2,0,1.57,1.57,0,0,1,.45,1.13,1.55,1.55,0,0,1-.45,1.13,1.55,1.55,0,0,1-2.2,0Z"/><path class="cls-2" d="M83.24,411.77a3.89,3.89,0,0,1,2.15-3.63,3.79,3.79,0,0,1-1.45-3.06,4,4,0,0,1,1.17-2.9,4.45,4.45,0,0,1,6,0,4,4,0,0,1,1.17,2.9,3.82,3.82,0,0,1-1.46,3.06A3.89,3.89,0,0,1,93,411.77a4.23,4.23,0,0,1-1.43,3.37,5.4,5.4,0,0,1-6.91,0A4.24,4.24,0,0,1,83.24,411.77ZM86.32,410a2.29,2.29,0,0,0-.72,1.8,2.39,2.39,0,0,0,.73,1.83,2.53,2.53,0,0,0,1.8.69,2.5,2.5,0,0,0,1.8-.69,2.36,2.36,0,0,0,.73-1.83,2.29,2.29,0,0,0-.72-1.8,2.88,2.88,0,0,0-3.62,0Zm-.22-4.88a2.16,2.16,0,0,0,.57,1.54,2.05,2.05,0,0,0,2.92,0,2.31,2.31,0,0,0,0-3.06,2.05,2.05,0,0,0-2.92,0A2.14,2.14,0,0,0,86.1,405.1Z"/><path class="cls-2" d="M67.1,526.94v-2.41L71.24,522h1v15.05H69.84V525.27Z"/><path class="cls-2" d="M76.28,536.73a1.55,1.55,0,0,1-.45-1.13,1.53,1.53,0,0,1,.45-1.12,1.52,1.52,0,0,1,2.2,0,1.53,1.53,0,0,1,.45,1.12,1.55,1.55,0,0,1-.45,1.13,1.55,1.55,0,0,1-2.2,0Z"/><path class="cls-2" d="M83.65,535.21a11.78,11.78,0,0,1,0-11.29,5,5,0,0,1,8.12,0,11.86,11.86,0,0,1,0,11.29,5,5,0,0,1-8.12,0Zm1.71-9.8a11.3,11.3,0,0,0,0,8.3,2.62,2.62,0,0,0,4.7,0,11.43,11.43,0,0,0,0-8.3,2.63,2.63,0,0,0-4.7,0Z"/><path class="cls-2" d="M68.32,722.91v-2.4l4.15-2.5h1v15H71.06V721.24Z"/><path class="cls-2" d="M77.51,732.7a1.53,1.53,0,0,1-.45-1.12,1.55,1.55,0,0,1,.45-1.13,1.53,1.53,0,0,1,2.19,0,1.55,1.55,0,0,1,.45,1.13,1.53,1.53,0,0,1-.45,1.12,1.51,1.51,0,0,1-2.19,0Z"/><path class="cls-2" d="M83.59,733.06v-.95l5.5-7.11a6,6,0,0,0,.94-1.49,3.46,3.46,0,0,0,.24-1.3,2.46,2.46,0,0,0-.52-1.66,1.9,1.9,0,0,0-1.53-.62,2,2,0,0,0-1.53.61,2.82,2.82,0,0,0-.71,1.67l-2.15-.41A4,4,0,0,1,85.17,719a4.38,4.38,0,0,1,3-1.13A4.48,4.48,0,0,1,91.41,719a4.08,4.08,0,0,1,1.23,3.13,5.41,5.41,0,0,1-1.26,3.43L87.05,731h5.81v2.09Z"/><path class="cls-2" d="M68.26,820.49v-2.4l4.14-2.5h1v15H71V818.82Z"/><path class="cls-2" d="M77.44,830.29a1.57,1.57,0,0,1-.45-1.13,1.55,1.55,0,0,1,.45-1.13,1.47,1.47,0,0,1,1.1-.46,1.46,1.46,0,0,1,1.1.46,1.55,1.55,0,0,1,.45,1.13,1.57,1.57,0,0,1-.45,1.13,1.49,1.49,0,0,1-1.1.46A1.51,1.51,0,0,1,77.44,830.29Z"/><path class="cls-2" d="M83.58,825.89a5.39,5.39,0,0,1,.73-2.72l4.54-7.75H91.4l-3.3,5.66a1.23,1.23,0,0,1,.51-.1A4.49,4.49,0,0,1,92,822.37a4.85,4.85,0,0,1,1.33,3.52A4.76,4.76,0,0,1,92,829.4a5,5,0,0,1-7,0A4.8,4.8,0,0,1,83.58,825.89Zm2.36,0a2.92,2.92,0,0,0,.71,2,2.49,2.49,0,0,0,3.64,0,3,3,0,0,0,.71-2,2.89,2.89,0,0,0-.7-2.06,2.58,2.58,0,0,0-3.66,0A2.89,2.89,0,0,0,85.94,825.89Z"/><path class="cls-2" d="M63.17,928.22v-1l5.5-7.11a6.24,6.24,0,0,0,1-1.49,3.46,3.46,0,0,0,.24-1.3,2.49,2.49,0,0,0-.53-1.66,1.9,1.9,0,0,0-1.53-.62,2,2,0,0,0-1.53.61,2.88,2.88,0,0,0-.71,1.67L63.41,917a4,4,0,0,1,1.34-2.83,4.39,4.39,0,0,1,3-1.13A4.46,4.46,0,0,1,71,914.15a4.09,4.09,0,0,1,1.23,3.14A5.43,5.43,0,0,1,71,920.71l-4.34,5.42h5.81v2.09Z"/><path class="cls-2" d="M76.28,927.87a1.57,1.57,0,0,1-.45-1.13,1.55,1.55,0,0,1,.45-1.13,1.55,1.55,0,0,1,2.2,0,1.55,1.55,0,0,1,.45,1.13,1.57,1.57,0,0,1-.45,1.13,1.55,1.55,0,0,1-2.2,0Z"/><path class="cls-2" d="M83.65,926.34a11.78,11.78,0,0,1,0-11.29,5,5,0,0,1,8.12,0,11.86,11.86,0,0,1,0,11.29,5,5,0,0,1-8.12,0Zm1.71-9.8a11.3,11.3,0,0,0,0,8.3,2.62,2.62,0,0,0,4.7,0,11.43,11.43,0,0,0,0-8.3,2.63,2.63,0,0,0-4.7,0Z"/><path class="cls-2" d="M358,167.85V151.19H372.2V82H358.4V65.37h89.76v38H431.5V82H388.68v25.44h19V95.65h16.66v40.13H407.67V124h-19v27.24H431.5V130.4h16.66v37.45Z"/><path class="cls-2" d="M394.16,276.12a51.74,51.74,0,0,0-103.42-.06,13.65,13.65,0,0,0,1.83,27.17H325.1a13.66,13.66,0,1,0,0-27.31h-1.9a19.78,19.78,0,0,1,39.31,0h-3.15a13.66,13.66,0,0,0,0,27.31H391.9a13.65,13.65,0,0,0,2.26-27.11Zm-51.71-43.48a45.41,45.41,0,0,1,45.3,43.28h-5.58a39.19,39.19,0,0,0-78.25,0h-6.77A45.41,45.41,0,0,1,342.45,232.64Zm-10.1,56.93a7.26,7.26,0,0,1-7.25,7.25h-15V282.33h15A7.25,7.25,0,0,1,332.35,289.57Zm10.51-37.64a26.21,26.21,0,0,0-26.09,24h-6.43a32.77,32.77,0,0,1,65.4,0h-6.8A26.21,26.21,0,0,0,342.86,251.93Zm49,44.89h-15V282.33h15a7.25,7.25,0,0,1,0,14.49Z"/><path class="cls-2" d="M493.61,277.49H477.89V291.2h16.39v12.5H454.91V291.2h10.62V239.33H455V226.84H490c8.87,0,18.41,2,24.19,8.6,4.16,4.83,5.91,10.88,5.91,17.33C520.08,266.61,509.6,277.49,493.61,277.49Zm7.12-36.28A27.24,27.24,0,0,0,490,239.33H477.89V265H488.5c4.57,0,9.27,0,13.31-1.88,2.55-1.21,5.91-4.57,5.91-10.75A12.21,12.21,0,0,0,500.73,241.21Z"/><path class="cls-2" d="M559.6,417.9c0-10-14.66-27.81-25.68-33.49l-1.59,6.36s-.37-5.86-3.86-8.27a14.67,14.67,0,0,0-11.7-2.28c-4,9.85-2.61,16.16,3,25.73,3.29,5.64,8.45,10.76,13.09,13.31C536.06,421,544,422,544,422l-6.73,1.4c4.48,5.21,11.67,7.19,19.53,4.84l3.27,3.43,3.26-3.06-16.66-16.72-3.8,4.3L528.3,394.81l14.32,13.72,3-3.16Z"/><path class="cls-2" d="M360.82,405.77c21.8,34.88,65.39,34.88,87.19,0C426.21,370.89,382.62,370.89,360.82,405.77Zm43.59,21.8a21.8,21.8,0,1,1,21.8-21.8A21.79,21.79,0,0,1,404.41,427.57Z"/><polygon class="cls-2" points="412.28 403.15 407.04 403.15 407.04 397.9 401.79 397.9 401.79 403.15 396.55 403.15 396.55 408.39 401.79 408.39 401.79 413.64 407.04 413.64 407.04 408.39 412.28 408.39 412.28 403.15"/><path class="cls-2" d="M272.68,432.82c-19.17,0-25-16.66-25-27,0-15.23,10.3-26.34,24.46-26.34,7.43,0,12,2.87,13.16,3.77v-3.77h8.25V400.4h-8.25v-8.51a25.14,25.14,0,0,0-13.07-4.21c-6.36,0-16.22,4.56-16.22,18.27,0,9.4,4.75,18.63,16.4,18.63,7.16,0,13.52-3.85,16.39-5.82l5,6.09C287,431,276.18,432.82,272.68,432.82Z"/><path class="cls-2" d="M586,509.92a8.41,8.41,0,0,0-12.06,1.23,29.11,29.11,0,0,0-4.54,8.19l5.35.12L569,534.77,568.64,522H564l3-10-.54-.64a9.74,9.74,0,1,0-14.89,12.57L569,544.62l17.46-20.89C589.89,519.6,590.35,513.66,586,509.92Z"/><path class="cls-2" d="M368.18,511.32H327.84a14.94,14.94,0,1,0,0,29.88h40.34a14.94,14.94,0,0,0,0-29.88ZM338.3,528.65h-4.78v4.78h-4.78v-4.78H324v-4.78h4.77v-4.78h4.78v4.78h4.78Zm29.88,8.58H349.6V515.29h18.58a11,11,0,0,1,0,21.94Z"/><path class="cls-2" d="M457.48,545.74H440.21v-6.25h5.31V513.56h-5.31v-6.25h18.88a18.85,18.85,0,0,1,8.6,1.75c6.38,3.29,8.6,10.35,8.6,16.73C476.29,541.17,467.42,545.74,457.48,545.74Zm1.81-32.18H451.7v25.93h5.51c2.89,0,5.44-.13,7.73-1.54,3.89-2.49,5.17-7.32,5.17-11.89C470.11,519.2,467.15,513.56,459.29,513.56Z"/><path class="cls-2" d="M220.67,545.74v-6.25h6.38V513.56h-6.38v-6.25h20.62v6.25h-8.06v25.93h15.25V527.67h6.25v18.07Z"/><path class="cls-2" d="M570.86,730.6V739h-1.74v2.15H581V739H579.3V730.6c0-2.11,8.44-16.8,8.44-21v-2.17H562.42v2.08C562.42,713.71,570.86,728.49,570.86,730.6Zm14.77-20.93c-.17,3.09-3.35,8.84-4.74,11.2-.42.69-1.2.55-1.93.21a7.27,7.27,0,0,0-2.56-.34c-1.87,0-3.35,1.52-4.72,1.52a3.23,3.23,0,0,1-2.8-1.66,61.26,61.26,0,0,1-4.35-10.93Z"/><path class="cls-2" d="M424.74,722.39v0c0-.11,0-.22,0-.33a.07.07,0,0,0,0,0c0-.13,0-.25,0-.38l0-.37a.68.68,0,0,1,0-.14,1.7,1.7,0,0,1,0-.22,1.09,1.09,0,0,0-.05-.17.84.84,0,0,0-.05-.17c0-.07-.05-.13-.07-.2s0-.09-.05-.13a2.12,2.12,0,0,0-.11-.21l0-.1c0-.08-.09-.15-.14-.23a.43.43,0,0,1,0-.07l-.18-.23,0,0a2.39,2.39,0,0,0-.22-.23l0,0-.25-.22h0a3.69,3.69,0,0,0-2.29-.81h-.08a3.65,3.65,0,0,0-2.3.87,3.63,3.63,0,0,1,2.6-2.13c0-.13,0-.26,0-.39a5.34,5.34,0,0,0-5.43-5.22,5.5,5.5,0,0,0-1.16.15,6.63,6.63,0,0,1-4.49,8.16,6.63,6.63,0,0,0,2.55-7.26c-.07-.24-.16-.48-.25-.71l0-.07-.09-.19,0-.08-.09-.18a.25.25,0,0,1,0-.07,1.62,1.62,0,0,1-.1-.18l0,0a5.87,5.87,0,0,0-.39-.58.35.35,0,0,0-.05-.08l-.11-.14-.07-.09-.12-.13-.07-.09-.13-.13-.07-.07c-.1-.1-.2-.2-.31-.29l0,0-.12-.11-.1-.08-.13-.1-.11-.08-.12-.09-.12-.08-.13-.08-.14-.09-.11-.07-.25-.13-.09,0-.18-.09-.11,0-.16-.07-.12,0-.17-.07-.12,0-.19-.06-.1,0-.29-.07,0,0-.25-.05-.11,0-.2,0h-.11l-.2,0h-.76l-.42,0h-.08a7.07,7.07,0,0,0-1.31.26h0a6.68,6.68,0,0,0-4.6,5,5.52,5.52,0,0,1,4.85,7.7c0-.11,0-.21,0-.32a5.52,5.52,0,0,0-5-5.39,3.16,3.16,0,0,0-.32,0h-.36l-.38,0h-.09l-.34.05h0l-.35.08-.09,0a1.81,1.81,0,0,0-.31.09h0l-.34.12-.06,0a2.08,2.08,0,0,0-.3.13l0,0-.32.17,0,0-.29.18,0,0-.31.22h0l-.28.24h0a7,7,0,0,0-.53.56h0a5.67,5.67,0,0,0-.82,1.33,5.74,5.74,0,0,0-.44,2.27,5.53,5.53,0,0,0,5.65,5.43l21.9-.4a3.67,3.67,0,0,0,3.29-2.22A4,4,0,0,0,424.74,722.39Z"/><path class="cls-2" d="M409.62,741.18a4.31,4.31,0,0,0,3.94-4.09c-.07-4-4.16-8-4.16-8s-3.94,4.08-3.86,8.1A4.32,4.32,0,0,0,409.62,741.18Z"/><path class="cls-2" d="M323.28,709a15.28,15.28,0,0,0,0,30.53,4,4,0,0,0,8-.54v-9.61a4,4,0,1,0-8.06,0v.56a5.84,5.84,0,0,1,0-11.6v.93a4,4,0,0,0,8.06,0v-9.6a4,4,0,0,0-8-.67Zm-12.84,15.26a13.4,13.4,0,0,1,12.78-13.37v1.65a11.57,11.57,0,0,0,0,23.1v2A13.4,13.4,0,0,1,310.44,724.23Zm16.81,3a2.14,2.14,0,0,1,2.14,2.14v4.43h-4.28v-4.43A2.14,2.14,0,0,1,327.25,727.21Zm-11.11-3.1a7.73,7.73,0,0,0,7.08,7.7v1.9a9.68,9.68,0,0,1,0-19.31v2A7.74,7.74,0,0,0,316.14,724.11Zm13.25-14.47v4.42h-4.28v-4.42a2.14,2.14,0,1,1,4.28,0Z"/><path class="cls-2" d="M505.68,720.71v-7h-6.83v21.62h6.77v5.2h-18.7v-5.2h6.72V713.71h-6.83v7H481.6v-12.2h29.29v12.2Z"/><path class="cls-2" d="M221.33,740.53v-5.2h4.42V713.71h-4.31v-5.2h28.05v11.87h-5.21v-6.67H230.9v7.95h5.94V718H242v12.54h-5.2v-3.69H230.9v8.51h13.38v-6.5h5.21v11.7Z"/><path class="cls-2" d="M532.45,808H517.27v3.19c0,4.4,4.55,7.44,4.55,9s-4.55,4.55-4.55,9.1v3h15.18v-3c0-4.55-4.55-7.59-4.55-9.1s4.55-4.56,4.55-9.11Zm-7.59,22.09a2.77,2.77,0,0,1-2.58-2.58c0-2.58,2.58-5.16,2.58-5.16s2.58,2.58,2.58,5.16A2.77,2.77,0,0,1,524.86,830.11Zm5.69-17a38.11,38.11,0,0,1-5.24,6.86.67.67,0,0,1-1,0,35.88,35.88,0,0,1-4.3-5.78,1.07,1.07,0,0,1,0-1.19,3.18,3.18,0,0,1,2.35-1.3c1.75,0,3,2,4.74,2a8.12,8.12,0,0,0,3.14-1C530.52,812.51,530.7,812.87,530.55,813.16Z"/><path class="cls-2" d="M193.51,815.3v-6.82h1.4v-1.73h-9.63v1.73h1.41v6.82c0,1.7-6.82,13.57-6.82,17V834h20.46v-1.67C200.33,828.94,193.51,817,193.51,815.3Zm-11.93,16.91c.13-2.5,2.7-7.15,3.83-9.05.33-.56,1-.44,1.56-.17a5.87,5.87,0,0,0,2.06.27c1.51,0,2.71-1.22,3.82-1.22a2.63,2.63,0,0,1,2.26,1.33,49.29,49.29,0,0,1,3.51,8.84Z"/><path class="cls-2" d="M593.86,817.16a14.66,14.66,0,0,0,29.3,0,3.87,3.87,0,0,0-.52-7.7h-9.21a3.87,3.87,0,0,0,0,7.74H614a5.6,5.6,0,0,1-11.13,0h.89a3.87,3.87,0,0,0,0-7.74H594.5a3.87,3.87,0,0,0-.64,7.68Zm14.65,12.32a12.87,12.87,0,0,1-12.84-12.26h1.59a11.1,11.1,0,0,0,22.17,0h1.92A12.87,12.87,0,0,1,608.51,829.48Zm2.86-16.13a2.06,2.06,0,0,1,2.06-2.06h4.24v4.11h-4.24A2.05,2.05,0,0,1,611.37,813.35Zm-3,10.67a7.43,7.43,0,0,0,7.39-6.8h1.82a9.29,9.29,0,0,1-18.53,0H601A7.43,7.43,0,0,0,608.4,824Zm-13.9-12.73h4.24v4.11H594.5a2.06,2.06,0,0,1,0-4.11Z"/><path class="cls-2" d="M281.18,817.21v-5.29H270.66v6.41h4.79v-3h4.12v10h-4.12v-2.91h-4.79v6.72h5.51v4.17h-13v-4.17h3.36V811.92h-3.32v-4.16h22.13v9.45Z"/><path class="cls-2" d="M451.28,811.92v21.46h-3.94L435.79,815.1v14.11h4.34v4.17H428.26v-4.17h3.4V811.92h-3.4v-4.16h8l10.88,17.78V811.92H443v-4.16h11.73v4.16Z"/><path class="cls-2" d="M371.09,810.31H343.88a10.08,10.08,0,0,0,0,20.16h27.21a10.08,10.08,0,0,0,0-20.16Zm-20.43,12.36L348.38,825l-2.28-2.28L343.83,825l-2.28-2.28,2.28-2.28-2.28-2.28,2.28-2.28,2.27,2.28,2.28-2.28,2.28,2.28-2.28,2.28Zm20.43,5.12H358.56V813h12.53a7.4,7.4,0,1,1,0,14.8Z"/><polygon class="cls-2" points="371.25 815.83 368.97 818.11 366.69 815.83 364.41 818.11 366.69 820.39 364.41 822.67 366.69 824.95 368.97 822.67 371.25 824.95 373.52 822.67 371.25 820.39 373.52 818.11 371.25 815.83"/><path class="cls-2" d="M501.56,923.85v0c0-.12,0-.24.05-.36s0,0,0-.06,0-.29,0-.44l0-.41,0-.15a1.87,1.87,0,0,0,0-.25,1.46,1.46,0,0,1-.05-.2l-.06-.19a1.8,1.8,0,0,0-.08-.21l-.06-.16-.12-.23-.06-.12c0-.08-.1-.16-.15-.25l-.05-.07c-.07-.09-.13-.18-.2-.26l0-.05a3,3,0,0,0-.24-.26l0,0-.28-.25h0a4.07,4.07,0,0,0-2.57-.91h-.08a4.06,4.06,0,0,0-2.59,1,4.09,4.09,0,0,1,2.92-2.4c0-.14,0-.29,0-.43a6,6,0,0,0-6.1-5.86,5.58,5.58,0,0,0-1.3.16,7.3,7.3,0,0,1,.28,1.88,7.48,7.48,0,0,1-5.32,7.29,7.43,7.43,0,0,0,3.15-6.23,7.19,7.19,0,0,0-.29-1.92,7,7,0,0,0-.28-.81l0-.08-.09-.21a.59.59,0,0,0,0-.08,2,2,0,0,1-.1-.21.56.56,0,0,1-.05-.08c0-.07-.07-.14-.11-.2l0,0c-.13-.22-.28-.44-.43-.65L487,910l-.13-.17-.08-.09-.13-.15-.08-.1a1.85,1.85,0,0,0-.14-.14l-.09-.09-.34-.33,0,0-.14-.11-.12-.1-.13-.11-.13-.09-.14-.1-.14-.1-.13-.09-.16-.09-.13-.08-.28-.15-.1,0-.2-.1-.13-.06-.18-.07-.13-.06-.19-.07-.13,0-.22-.07-.11,0-.33-.08h0l-.28-.06-.12,0-.23,0-.13,0-.22,0h-.14l-.24,0h-.47l-.48,0h-.08a7.32,7.32,0,0,0-1.48.29h0A7.51,7.51,0,0,0,473.7,913a6.21,6.21,0,0,1,5.94,6.08,6,6,0,0,1-.5,2.55c0-.11,0-.23,0-.35a6.22,6.22,0,0,0-5.57-6.06l-.37,0h-.41l-.42,0h-.1l-.38,0h0c-.14,0-.27,0-.4.09l-.1,0-.35.1h0l-.38.14-.08,0-.33.15,0,0-.36.2-.05,0-.33.21,0,0-.34.25h0l-.31.27h0q-.31.3-.6.63h0a6.22,6.22,0,0,0-1.41,4.05,6.21,6.21,0,0,0,6.34,6.09l24.6-.45a4.09,4.09,0,0,0,3.69-2.49A3.52,3.52,0,0,0,501.56,923.85Z"/><path class="cls-2" d="M162.22,918.58c7.74,12.4,23.24,12.4,31,0C185.46,906.19,170,906.19,162.22,918.58Zm15.49,7.75a7.75,7.75,0,1,1,7.75-7.75A7.75,7.75,0,0,1,177.71,926.33Z"/><polygon class="cls-2" points="180.34 919.9 179.03 918.59 180.34 917.27 179.03 915.95 177.71 917.27 176.39 915.95 175.07 917.27 176.39 918.59 175.07 919.9 176.39 921.22 177.71 919.9 179.03 921.22 180.34 919.9"/><path class="cls-2" d="M398.68,928.22v-2.38l10.11-13.71h-6.88v4.24h-3.09V909h14.27v2.22L402.85,925.1h7.89v-4.74h3.09v7.86Z"/><path class="cls-2" d="M256.06,928.22H245V925.1h2.62v-13H245V909h9.77c5,0,6.52,3,6.52,5.24a4.86,4.86,0,0,1-1.92,3.9l1.08.67a4.51,4.51,0,0,1,2,4C262.44,925.74,260.19,928.22,256.06,928.22Zm-.87-16.09h-4.47v4.6H255c.7,0,3.22-.26,3.22-2.38C258.24,913.34,257.47,912.13,255.19,912.13Zm-.71,7.73h-3.76v5.24h5.51c1,0,3.12-.47,3.12-2.52C259.35,919.86,255.72,919.86,254.48,919.86Z"/><path class="cls-2" d="M561.4,928.22l-.94-1.34a6.17,6.17,0,0,1-4.4,1.75,5.22,5.22,0,0,1-5.45-5.31,6.06,6.06,0,0,1,3.53-5.34l0-.07c-.27-.54-1.48-1.81-1.48-3.46,0-2.52,2-4.33,4.94-4.33a8.6,8.6,0,0,1,5.37,2.15l-1.78,2.28a6.48,6.48,0,0,0-3.69-1.34c-.88,0-1.75.54-1.75,1.31s1.21,2.42,1.68,3.09l2.92,4a16.7,16.7,0,0,0,1.28-3.56h4.73v3.09h-2.65a19.68,19.68,0,0,1-1.44,3.22l.53.74H567v3.09Zm-5.65-7.92a3.49,3.49,0,0,0-2,2.85,2.27,2.27,0,0,0,2.38,2.39,3.33,3.33,0,0,0,2.56-1.21Z"/><path class="cls-2" d="M336.35,908.24a6.73,6.73,0,0,0-6.36,4.53,6.73,6.73,0,0,0-13,2.47c0,3.92,2.75,7,5.15,9.18a39.7,39.7,0,0,0,3.6,3l3.82,2.79,3.91-2.66a45.28,45.28,0,0,0,3.95-3c2.63-2.27,5.65-5.41,5.65-9.5A6.73,6.73,0,0,0,336.35,908.24ZM332,923.77,330,921.85l-1.92,1.92-1.87-1.88,1.92-1.92-1.92-1.92,1.87-1.87L330,918.1l1.92-1.92,1.88,1.87L331.92,920l1.92,1.92Z"/><polygon class="cls-2" points="644.16 916.26 641.99 912.49 636.88 915.44 636.88 909.54 632.54 909.54 632.54 915.44 627.42 912.49 625.25 916.26 630.36 919.21 625.25 922.16 627.42 925.92 632.54 922.97 632.54 928.87 636.88 928.87 636.88 922.97 641.99 925.92 644.16 922.16 639.05 919.21 644.16 916.26"/></svg>