<svg id="Layer_1" data-name="Layer 1" xmlns="http://www.w3.org/2000/svg" viewBox="0 0 612 261.74">
  <defs>
    <style>
      .cls-1 {
        fill: #fff;
      }
    </style>
  </defs>
  <title>Artboard 2</title>
  <rect class="cls-1" width="612" height="261.74"/>
  <path d="M438.26,162.47a1.7,1.7,0,0,1-.39.46,6.82,6.82,0,0,1-3,1.57c-2,.48-5.37.77-6.05-1.12a6.32,6.32,0,0,1-.35-2.06c0-.06,0-.12,0-.18a9.4,9.4,0,0,1,.13-1.29c.08-.44.18-.92.32-1.43.4-1.41.93-2.82,1.2-4.3a21.14,21.14,0,0,0,.13-3.59s.55-.28,1.38-.64c2.23-1,6.58-2.45,8.33-.33a4.3,4.3,0,0,1,.74,3.11c0,.59-.09,1.17-.15,1.73-.38,3.66-1.16,6.59-2.28,8.07m-19.4,23.79c-3.2-.45-7.08-3.08-8.78-4.38a1.91,1.91,0,0,1-.73-1.79c.37-2.57,2.21-8.43,3.79-9.91a3,3,0,0,0,.37.47,2.56,2.56,0,0,1,.11-.24,11.28,11.28,0,0,0,6.81,1.57,8.84,8.84,0,0,0,1-.23,7.48,7.48,0,0,0,1.08-.34s.6,15.46-3.64,14.85M397.68,53.09c.47-.16.8-.25.8-.25s2.42-2.31,3.35-3.36l.09-.1c.6-.68,1.24.21,1.59.84.1.22.16.4.16.4s6.31-2,9.27-2,6.65,7.93,6.65,7.93l-.34-.71.4.83c7.91,1.83,11.9,9.77,11.9,9.77l1.13.57-1.41.56-13.83,5.53a4.61,4.61,0,0,0-1.85,1.13l-2,2c-.11-1.82-5.16-3.95-5.16-3.95-.74,1.11-4.8,4.32-7.14,2.59s.86-4.82.86-4.82-7,4.2-10.58-2.35c-2.78-5.09-.71-8.63.94-10.74.47-.6.91-1.1,1.2-1.47A5.55,5.55,0,0,1,395.52,54a12.44,12.44,0,0,1,2.16-.95m23.73,118.2c0-1.2.11-2.44.17-3.71-.06,1.27-.12,2.51-.17,3.71m143.32,51.38-.27-.33c-.34-.4-3.66-4-18.3-8.48-1.15-2.82-2.42-7.42-1.56-9.5a10,10,0,0,0,.49-1.4c4.91,1.27,14.45,3.1,18.33-.53,2.75-2.57,2.78-4.85,2.33-6.31-1.13-3.6-6.37-6.11-15.58-7.45l-.74-.09a31.74,31.74,0,0,1-1.71-5.51c-2.22-9.15-4.48-29.13-4.8-32a8.09,8.09,0,0,0-.25-5.72c-1.44-3.41-5.08-6.11-10.81-8-12.53-4.17-39-16.22-42.89-18a8.63,8.63,0,0,0-5.2-4.23c-1.56-.73-7.27-9.31-11.06-15-5.45-8.19-8.29-12.31-10-13.74-.93-2.78-6.24-15.15-27.82-20.25L433,65.19c-1-1.75-4.93-8-12-9.93-1.37-2.5-4.94-8.19-8.17-7.91a34.85,34.85,0,0,0-8.39,1.51,2.77,2.77,0,0,0-1.71-1,3.06,3.06,0,0,0-2.9,1.53,9.25,9.25,0,0,1-3.06,2.71c-1.54.34-11.34,2.93-12.57,12.81-1.31,10.46,2.68,15.71,6.75,19.47,3.46,3.19,10.47,3.14,13.69,2.94A170,170,0,0,0,408,111.89a119.89,119.89,0,0,1,2.1,32.36l1.33,24.07c-1.41,2.83-5,10.61-3.71,13.76a2.64,2.64,0,0,0,1.65,1.55,15.52,15.52,0,0,1,2.64,1.46c2.64,1.67,5.93,3.75,8.75,2.11s4-6.63,3.58-15.91c1-22.79,2.74-54.93,3.86-67.58.25.7.53,1.47.81,2.27-1.53,7.88-.62,35.76-.19,47a10.34,10.34,0,0,1-.85,3.9c-.15.42-.29.8-.39,1.13-1.3,4.51,0,6.58,1.33,7.52a5.47,5.47,0,0,0,3.19.89c2.52,0,5.45-1,6.65-2.16,4.79-4.76,2.75-17.22,4.16-29.17a18.57,18.57,0,0,0,3,3.25c5.33,4.22,6,6,6.78,7.81a13.17,13.17,0,0,0,2.46,4.17c3.9,4.55,14.21,7,32.89,10.16,4.37,1.45,24.63,8.05,31.52,8.84a97.47,97.47,0,0,0,6.06,34,15.69,15.69,0,0,0,2,11.68c-.85,2.41-1.9,6-1.25,7.63.84,2.11,13,5.94,13.13,6,4.63,1.45,10.59,2.94,15.56,2.94a17.44,17.44,0,0,0,4.22-.46c4-1,6-3.85,5.48-8Z"/>
  <g>
    <path d="M164.23,107.47c-.1-.5.45-1,.5-1.68.08-1.06-1.57-3.85-.8-4.92.65-.91,3.88-2.05,4.19-3.15a9.9,9.9,0,0,0,0-3.46s.91-.41,1.18-.5a16.45,16.45,0,0,1,1.93-.58l1.28-.24a8.8,8.8,0,0,1,5.19.48,5.21,5.21,0,0,1,1.76,1.23l1.32,5.46s4.51.74,1.65,4.85a2.14,2.14,0,0,1-3.68.25s-4.38-1.59-3.79-.42,2.92,5.72,2.92,5.72l-1.46,3,1.51,3.79s-2.45,3-4,2.63a2.62,2.62,0,0,1-.14-.41.78.78,0,0,0-.28-.41,6.63,6.63,0,0,1-2-4.17c-.07-.32-.22-.73-.54-.83-1.2-.37-4.39-.63-5-1.74-.24-.45.27-1.48.38-2a.78.78,0,0,0-.16-.72c-1.53-1.47-1.86-1.49-2-2.27m21.12-11.75a34.71,34.71,0,0,1-4.66-1.92c-5.26-4.72-13.85-.34-13.72,0,0,0,.54,2.79-.06,3.6-.78,1-3.35,1.42-4.2,3.35a4,4,0,0,0,.18,3.41c.26.6.72,1.22.48,1.82-.42,1-.5.8-.58,1.5-.16,1.31,1.83,2.23,2.21,2.77s-.07,1.3-.22,1.87c-.42,1.51,2.38,2.28,5.33,3.21,1,.31.37,3.23,2.47,4.82.37,1.1,2.25,5.25,9.38,6.81a7.08,7.08,0,0,0,1.5.14,11.43,11.43,0,0,0,2.25-.24l.31-.06.7-.17.29-.08c.46-.13.93-.29,1.41-.47.32-.12.64-.26,1-.4l.38-.17c3.78-1.71,8.15-4.52,9.43-8.85,5.08-17.11-10.18-20.18-13.85-20.94"/>
    <path d="M172,83.92c-2.87,1.81-6.61,3.48-7.85,1.51s.66-5,3.53-6.84,6.2-3.68,7.44-1.71-.25,5.23-3.12,7M123.6,95.29c-.19-.82-.79-2.81-.8-2.75s6.92-.81,7,.48,1,6.6,1,6.6.66,4,.91,5.41c.33,1.93.52,7.65-.76,7.57-.53,0-.71-1.38-.66-1.77.07-.57.25-2.15.25-2.15,0-.35-.05-.48-.15-.57a.58.58,0,0,0-.15-.11.68.68,0,0,0-.74,0,.9.9,0,0,0-.31.57l-.06.34c0,.12,0,.25,0,.38-.06.52-.15,1.33-.3,2.54-.1.75-.44.91-.81,1-1.84.31-5.63-2.36-5.89-3a11.51,11.51,0,0,1-.13-5.14c.26-1,1.47-2.61,1.77-3.59a15,15,0,0,0-.09-5.78m-18.74,3.49c-1.78,1.2-4.76,3.21-8.93,1.2-1.54-.75-2.23-1.72-2-2.91.22-1.45,1.51-3.28,2.24-3.1,1.45.34,3.89,1,5.26.42,5.7-2.56,7.74-1.6,7.75-1.6,1.4.09,2.74-.6,5.07-1.29.4.44,1.37,1.49,1.44,4.35-2.36.33-8.5,1.4-10.79,2.93m10.92-1.51,0,.2a.71.71,0,0,0,.3.64.7.7,0,0,0,.7,0c2.51-1.19,5.21-2.07,5.63-2a6.14,6.14,0,0,1,.14,4.28c-.34,1-1.63,2.86-1.86,3.94a19,19,0,0,0,.24,5.85c.39,1.16,4.16,3.93,6.74,3.93l.33,0a2.22,2.22,0,0,0,1.68-.9,2,2,0,0,0,.5.47,1.27,1.27,0,0,0,1.13.12c2.2-.85,1.82-5,1.52-9.11a54.57,54.57,0,0,0-.71-5.53c-.31-1.43-1.11-4-1-4.72.62-.25,2.62-.91,4.73-1.61,7.42-2.46,9.71-3.64,10.49-4.1,2.64-1.52,7.37-1.27,9.43-1.16,1.35.07,5.62.08,5.62.08a12.18,12.18,0,0,0,4.1.68,11.89,11.89,0,0,0,4.74-1c3.43-1.49,7.12-4.32,7.92-9.27a10.73,10.73,0,0,0-1-5.32,78.35,78.35,0,0,1-2.61-8.74c-1.28-4.67-9-12.71-13.43-15.83-11.2-7.95-16.73-8.46-17.93-9.39a50.59,50.59,0,0,0-7.5-4.64c-10.42-5.64-23.39-.37-25.88,2-3.94,3.72-5.9,10.15-6.69,13.81-.68,3.11-5.74,12.71-7,15.07-2.58-.88-13.14-4.31-20.84-4.31h0a5.8,5.8,0,0,0-3-3.67C70.7,56.56,69,56.93,67,58.23H65.12a3.41,3.41,0,0,0-1.92-1.61c-2.07-.7-5,.33-8.58,3-1.53,1.15-2.86,2.13-4,3-5.21,3.84-6.62,5.32-7.89,7-.19.26-3.91,5.84-1.19,8.87a3.45,3.45,0,0,0,2.58,1.1c3.43.07,8-3.21,10-5.24l3.56-2.59s3.77-.22,5-.48c1.73-.36,7.2-2.18,12.13,2.15,2.58,2.26,19.8,13,23.19,14.35.84.34,4.26,2.25,8.23,1.57,2.63-.45,4.56-2.31,6.78-4.66.69-.72,6.15-4.9,8.8-8.73a46.59,46.59,0,0,0,0,9s.28,2.27-7.48,4.27a.71.71,0,0,0-.49.46l-.24.74a30.37,30.37,0,0,1-4,1.26c-.84.1-2.78-1.17-8.31,1.53-1.84.78-4.14-.27-5.53-.48-1.18-.17-2.74,1.81-3.2,3.83-.26,1.13-.24,3.23,2.76,4.68a9.43,9.43,0,0,0,10.33-1.3c2.3-1.74,10.13-2.67,10.13-2.67"/>
  </g>
  <path d="M299.44,145.51a22,22,0,0,1-3.86,4.94,15.25,15.25,0,0,1-5.8,2.75c-2.12.36-4.77-.27-5.56-1.44a2.25,2.25,0,0,1-.06-1.7c.19-.66-1.1-1.53-1.71-2.27a14.38,14.38,0,0,1-1.53-2.59,4.52,4.52,0,0,0-.74-1.27,16,16,0,0,1-2.85.22,5.93,5.93,0,0,1-2.26-1,4.33,4.33,0,0,1-1.5-3.47c-.06-1.05.2-3.73.1-4.18-.2-.88-1.24-2.7-1.23-3.38,0-1.11,1.29-3.09,1.5-4.18a23,23,0,0,0,.11-2.43h0s.28.19.69.43c2.2,1.31,9,5.08,13,3.86,0,0,1.76,1.08.38,6.31l1.31.46s4.61-5.84,6.45-3.92.69,3.76-2.69,5.69a1.55,1.55,0,0,0,1.94,1,3.41,3.41,0,0,0,1.12-.6l.12,2.39s1.51.75,2.08,1.09a2.45,2.45,0,0,1,1.11,1.51,2.86,2.86,0,0,1-.12,1.76m-37.22,43.3a10.64,10.64,0,0,1-1,.62c-4,1.87-3.78,1.64-4.46,2.78a12.74,12.74,0,0,1-2.52,2.75c-.81.52-2.3,1.06-3.11,1.58a23.67,23.67,0,0,1-3.36,2.07c-.84.32-2.23.29-2.31-.25-.25-1.77,4.28-2.24,4.23-3.75,0-.27-.18-.47-.74-.67s-1.59-.68-2-.82c-.69-.24-1.42,1.38-1.08,1.8a3.34,3.34,0,0,1,.59,1c.18,1-1,1-1.33,1a3,3,0,0,1-1.74-1.6c-.38-1.09,1.53-4.1,2.37-5.07,1.21-1.4,6.8-2,6.8-2l5.94-2.72.86-.4.58-.27a3.27,3.27,0,0,1,2.42,3,3.58,3.58,0,0,1-.11,1M218.07,215.3l.18.22-.18-.22m.35.45a3.4,3.4,0,0,1,.18.3,3.4,3.4,0,0,0-.18-.3m98-21.88a86.56,86.56,0,0,0,.81-9.38c.61-4.74-1.11-16.5-1.4-19.14-1.31-12-8-16.77-11.67-20.3a55,55,0,0,0-6.52-4.69l-.21-2.16a19.62,19.62,0,0,0,2.87-4.73,22,22,0,0,0,3-10.42c-.06-3.4-1.57-7.42-4.31-9.62-10-8-19.42-.7-22.86,1.94l-.68.52c-3.08,2.27-2.07,10.35-2.39,12-.22,1.11-1.57,3.23-1.53,4.36,0,.89,1.23,2.66,1.31,3.54s-.2,2-.15,4.26.53,3.06,1.89,4a5.57,5.57,0,0,0,3,1,19.59,19.59,0,0,0-2.52,11.6c.58,4.15-2.54,16.45-3.28,19.27l-7.29,3.71a15.13,15.13,0,0,0-14.27,1.17l1,1.57a13.17,13.17,0,0,1,11.07-1.61l-2.76,1.4s-.14.76-.17,1c-.06.44-.07,1-.07,1l-7,3.13c-1.75.34-6.44.72-7.63,2.32-.36.49-2.5,3.31-2.5,5.25a2.53,2.53,0,0,0,2.11,2.77,2.48,2.48,0,0,0-.2.53,1.73,1.73,0,0,0,.17,1.25s-10.61,1.39-11.51,1.9a191.63,191.63,0,0,1-20.65,7.58l-1.56.46a78.64,78.64,0,0,0-7.86-1.94l-.73-.15-.29.87-.5.78c.18.11.26.13,1.17.31,9.26,1.84,13.43,3.91,15.27,5.56a7,7,0,0,1,1.24,1.69,3.23,3.23,0,0,0-.15-.34,2.75,2.75,0,0,1,.17.41,1.6,1.6,0,0,1,.14.44s13.91,1.53,19.3.69c0,0,9,0,11.57-1.56a17.11,17.11,0,0,1,8.33-2.78c2.27,0,24.41,3.81,36.88,3.67,9.69-.11,11.18-2.88,13.23-6.71a23.51,23.51,0,0,1,3.43-5.12c2.27-2.51,3.55-6,4.3-9.41,6.77-1.41,12,3.17,12.26,3.41l1.24-1.37c-.07-.06-5.75-5.06-13.13-3.95"/>
</svg>
