<svg id="Layer_1" data-name="Layer 1" xmlns="http://www.w3.org/2000/svg" viewBox="0 0 612 261.74">
  <defs>
    <style>
      .cls-1 {
        fill: #fff;
      }
    </style>
  </defs>
  <title>Artboard 1</title>
  <rect class="cls-1" width="612" height="261.74"/>
  <path d="M555.27,158.67a7.33,7.33,0,0,1-.11,2.47,39.75,39.75,0,0,1-1.1,3.91c-.61,1.65-3.64,2.61-5.6,3s-2.89-.49-2.9-.95c0-.61,2.75-1,3.71-1.35a3.34,3.34,0,0,0,2.2-1.74c.26-.51.9-1.72.48-2.22s-1.08-.75-1.4.57a2.66,2.66,0,0,1-2.13,2c-.41-.08-.19-1.21.05-2.08a6.1,6.1,0,0,0,.17-2c-.19-2.24-.36-7.37-.36-7.37l-.26-1.28v0c0-.06.11-.09.16-.15,1.43-1.46,4.37-1.62,5.54-.36a1.57,1.57,0,0,1,.34.51,1.85,1.85,0,0,1,.18.62c0,1.07.76,4.63,1,6.46M529.88,48.24c.69-.29,1.24.46,2,.3A4.89,4.89,0,0,1,535,49a5.67,5.67,0,0,1,2.1,1.63c1.91,2.45,2.91,3.7,2.76,6.05-.09,1.42.6,1.61-.66,3.67-.51.82-.32,2.24,1.47,2.3a.5.5,0,0,1,.33.15,3.62,3.62,0,0,1,.51,2.59,8.54,8.54,0,0,1-.77.94,4.24,4.24,0,0,1-1.93.17,24,24,0,0,1-4,2.41c-.16-.14-.35-.28-.56-.43-3.08-2.18-11.26-5.4-12.87-6l-.3-.11a16.52,16.52,0,0,1,.15-2.62c1.45-6.11,3.42-9.34,7.25-10.57a13,13,0,0,0,1.44-.86m12.34,18.05a3.81,3.81,0,0,0,.26-2.7,13.12,13.12,0,0,0,1.2-7.7,10.82,10.82,0,0,0-6.26-8,13.14,13.14,0,0,0-6.81-.89,1.22,1.22,0,0,0-.69-.25,1.12,1.12,0,0,0-.92.61c-.42.13-.84.26-1.27.44-3.08,1.34-5.35,4-6.74,7.78-.18.46-1.72,4.36-1.37,6.65l-.41.8a44,44,0,0,0-11.68-1.81c-.43,0-.84,0-1.25.05h-.07c-.32,0-.61.07-.91.12l-.45.08-.61.16c-.14,0-.28.07-.41.12a6.37,6.37,0,0,0-1.06.45c-2,1.07-6.34,4.07-10.94,7.24-5.38,3.71-11.86,8.19-14.63,9.57a3.87,3.87,0,0,1-.42.16l-.49.22-.1,0a1,1,0,0,0-.22.08s-.46.23-1.21.56A63.79,63.79,0,0,1,467,82.89l-9.58,2.32-27.82,6.72c-.72.13-6.17,1.18-8.2,3.47-1.48,1.6-34.1,22.43-55.67,36a.88.88,0,0,0-.4.66l-.12,1.45c-4.75-.66-26.06-3.56-33.26-3.38a4.31,4.31,0,0,0-3.92,2.69c-1.08,2.66-2.47,9.46,7.85,15.06,13.6,7.39,34.6,5.55,38.57-1.27,2.19-3.76,7.47-7.19,15.68-10.21a27.42,27.42,0,0,0,4-1.87c.82-.46,1.74-1,2.72-1.48,4.72-2.52,11.16-6,14.78-10.43,3.79-2.12,20.71-11.59,21.36-12.2,1.34-.49,15.82-1,24.75-1.26,1.18.27,7.73,1.79,9.67,1.6.41.22.81,2.31.73,4.63-.82,2-8.39,20.52-7.07,28.62l.55,3.43c1.18,7.45,2.2,13.88,4.12,16.55,1.19,1.68.91,20.67-.05,38.07a.88.88,0,0,0,.08.42l1,2c-1.72,4.29-8.49,21.41-7.83,24.54.51,2.45,2.59,6.64,6,7.47a5.38,5.38,0,0,0,2.7,0c1.95-.51,4-2,6.06-4.58,5.11-6.24,5.7-15.72,6.09-22,.17-2.69.38-6,.94-6.41,1.67-.26,2.41-3.6,2.17-9.95.53-2.4,6.87-32.22.53-44.17,1-2.45,4.37-10.54,4.41-12a82.35,82.35,0,0,1,5-7c7.07-9.56,18.82-25.43,19.86-33,5.08-2.78,12.65-6.12,14.35-5.21,2.69,1.44,3.7,2,9.32,25.76,4.53,19.18,6.89,24.54,7.69,26a5.23,5.23,0,0,1,.48,1.15l2.41,7.94.54,7.7c0,.07-.05.2-.09.37-.29,1.09-.77,3-.13,4.14l-.14,0c-1.53.5-2.86.92-2.67,2.1.09.59.58,1.6,2.83,1.77,2.81.21,7.16-1,8.05-3.81.21-.66.39-1.19.54-1.64a10.62,10.62,0,0,0,.78-4,38,38,0,0,0-1.09-7.6l0-4.39A16.55,16.55,0,0,0,555,144c-.4-1.77-1.08-5.39-2-12.56-1.45-11.46-2.54-19.22-4.51-22.62-1.22-2.12-.56-17.1.15-26.14.37-1.16-.1-4.78-12.71-13a20.25,20.25,0,0,0,3.32-2c.27-.22,2.44-.45,3-1.35"/>
  <path d="M138.2,169.81c0-1.21-.07-13.16-.2-17.6a27.7,27.7,0,0,0-.36-3.72c-.94-5.55-3.95-24.17-3.53-30.91.52-8.22-3.32-32.56-5.21-37.43a8.85,8.85,0,0,0-5-4.88,18.12,18.12,0,0,0,2-2.56,2.63,2.63,0,0,0,2.64-.34A12.47,12.47,0,0,0,131.63,68a7,7,0,0,1,3.25-3.21,7.17,7.17,0,0,0,1.33-.89c1.54-1.36,10.13-14.83,7.63-26.16-1.35-6.12-5.64-10.3-12.74-12.43s-12.7-2-16.74.53c-5.81,3.62-7.06,11.15-8.07,17.2-.28,1.74-.56,3.37-.9,4.69-2.12,8-12,13.13-12.16,13.22-.81.49-19.81,12.06-23.78,20.51-2.64,5.65-.86,18,.58,28,.69,4.81,1.34,9.35,1.1,11-.44,2.92,1.65,13.67,4.89,29.73,1.89,9.35,3.67,18.19,3.78,20.84.24,6,1.62,42.67,1.77,46.85-4.92,8.92-3.33,29.23-1.29,44H98.05c0-2.32-.16-5.51-.36-9.58-.33-6.65-.86-17.78-.11-19.17,1-.76,2-3.2,3-6.18a138.5,138.5,0,0,0,1,15.88,59.14,59.14,0,0,1,.38,19.05h14.76c1.18-9.56,3.93-34.2,4.34-37.94,4.29-5.21,5.32-20.67,5.4-22.27l2.92-14.63a2.23,2.23,0,0,0,1.17.11,1.93,1.93,0,0,0,.39,2.31,2.35,2.35,0,0,0,1.73.53,6.34,6.34,0,0,0,4-2.5c2-2.42,3.51-6.41,4.4-9.34.47-1.54-.59-3.55-1.71-5.68A13.92,13.92,0,0,1,138.2,169.81Zm-40.15,27.8c-1,.22-1.66-1.32-1.73-1.5.07.42,1.19,6.52-.87,6.88-1.76.32-2.32-2-2.32-2-2,.45-7-2.3-8.79-3.66s-.06-13.6-.06-13.6c8.4,1,12.6-3.07,12.6-3.07a12.6,12.6,0,0,0,.79,6.54c.66,1.78,1.26,1.95,1.23,8C98.9,196.27,99,197.41,98.05,197.61ZM122.27,74.39l-.15.08a5.25,5.25,0,0,1-3.12.58,4.81,4.81,0,0,1-.6-.14c-3-1-3.55-2.1-4.79-1.24-1,.65-.09,1.92-.09,1.92-16.8,3.9-21.41-7.16-22.34-10.15-.14-.45-.2-.73-.2-.73s6.71-4.56,9.21-6.6c2-1.65,5.29-5.08,6.52-6.38l.51-.54s0-.17-.08-.4c-.22-1.22-.74-5.15,1.44-6.41a1,1,0,0,1,.25-.07c2.75-1.19,4.86,4.27,4.86,4.27l-2.39,6.73c1.07-.56,5.6-1.56,7.8-2.63.9-.44,1.93.23,2.53,1,3.3,4.51,9.38,7.48,12,8.61.77.33,1.24.51,1.24.51l-3.67,2.55s-.26.58-.65,1.34a15.71,15.71,0,0,1-2.45,3.77c-.49.46-1,.65-1.33.34-.58-.49-1.62-.26-2.17,1A5.08,5.08,0,0,1,122.27,74.39Zm17.37,102a3.59,3.59,0,0,1-.18,2.29,14.46,14.46,0,0,1-1.07,2.42s-.41,1.18-1,2.45a12.69,12.69,0,0,1-1.34,2.38c-1.19,1.53-4,3.23-4.24,2.21a.82.82,0,0,1,0-.35,7.1,7.1,0,0,1,1.47-2.91,3.43,3.43,0,0,0,.5-.86c0-.79.7-3.94.74-4.22a1.94,1.94,0,0,0-.51-1.34,5.78,5.78,0,0,0-1,1.16c-.14.32-.15.72-.59,2.17a8.75,8.75,0,0,1-1.74,3.52,3,3,0,0,1-.31.31.75.75,0,0,1-.67,0c-.57-.28-.31-2.44,0-4.31.27-1.51.6-2.85.6-2.85a10,10,0,0,1-.22-2.19v0c0-.42,0-.87,0-1.32,0-2.21.2-4.52.2-4.52a26,26,0,0,0,5.15-.14l1.27-.14s2,4.38,2.73,6.06Z"/>
  <path d="M297.13,42.55c-.7-.7-1.19-.35-1.32-.23-2,1.86-3.52,1.76-5.31,1.65a15,15,0,0,0-1.91,0c-10,.86-17.75,2.91-22.89,6.11-3.79,2.36-15.22,4.29-16.43,4.49-5.85-1.58-8.2-.33-9.92.58a5,5,0,0,1-1.8.71,61.61,61.61,0,0,1-14.9-.18,19.92,19.92,0,0,0-13.45,3.19l-1.85-.58a4.17,4.17,0,0,0-1.93-1.54c-2.63-1.27-6.64-1.75-9.3,1.08a6.72,6.72,0,0,0-1.62,6.67,4.47,4.47,0,0,0,2,2.64,30.9,30.9,0,0,0,4.19,1.81,10.71,10.71,0,0,0,7.42-.18,12.82,12.82,0,0,0,2.57,3.83,32.32,32.32,0,0,1,6.07,9.9c3.42,8.92,8,12.61,14.88,11.93a1.43,1.43,0,0,0,1.21-1,3.47,3.47,0,0,0-.44-3,.78.78,0,0,0-.81-.29c-.15,0-.47.09-.84.14a1.55,1.55,0,0,0-.39-.41c-.74-.55-3.81-1.16-4.91-1.37l-3.3-8.74-4-11.1c3,.17,14.37.82,15.76,1s6.31,1.64,7.34,1.94c3.66,6.47,10.56,10.8,11.66,11.46,1.48,3.13,7.59,4.68,8.71,4.94,1.74,1.9,15.31,11.62,16,11.82.5.31,2.34,3.71,3.2,5.77a8.11,8.11,0,0,1,.17,2.64c-.05,2.24-.11,5,2.06,5.25h.16a1.61,1.61,0,0,0,1-.41c2-1.7,2.47-8.9,2.54-10.12,1.55-3.31,1.83-5.65.84-6.94a3.1,3.1,0,0,0-2.79-1,35.62,35.62,0,0,1-10.14-8c-2.83-3.46-7.62-6-10.49-7.55a23.39,23.39,0,0,1-2.23-1.26c-.27-.81-6.45-10.5-8-12.93l.1-.3c5.91-1.61,12.78-6.66,13.63-7.3a22.24,22.24,0,0,0,6.61-3.54,29.07,29.07,0,0,1,9.78-3.37,29.43,29.43,0,0,1,9.66,0c2.27,2.54,5.65,4.19,7,4.22a1,1,0,0,0,.74-.24C302.79,53.43,298.66,44.1,297.13,42.55ZM207.86,67.77a.56.56,0,0,0,0,.12,7.22,7.22,0,0,1-4.05.78,11.27,11.27,0,0,1-4.49-1.3l0,0a4.24,4.24,0,0,1-1-3.9,5.89,5.89,0,0,1,2.89-3.8s2.61,1,3,.49c0,0-1.49-1.8-.81-2.29s2.32.12,3,.77a1.42,1.42,0,0,1,.13.23l.08.21,2.15.67A9.1,9.1,0,0,0,207.86,67.77Zm17.51,24.64a7,7,0,0,0,.22-2.9c0-.24,0-.39,0-.39s3.62.68,4.29,1.29c.25.23-1,.31-1.49.18-.32-.08-.23.11-.23.11.18,1.1,2.85.35,3.6.17A.28.28,0,0,1,232,91a2.63,2.63,0,0,1,.06,2.35.21.21,0,0,1-.1.11c-1.14.72-3.15.55-4.76.09a12.17,12.17,0,0,1-2.07-.82A1.33,1.33,0,0,0,225.37,92.41Z"/>
</svg>
