<svg id="Layer_1" data-name="Layer 1" xmlns="http://www.w3.org/2000/svg" viewBox="0 0 248.21 261.74">
  <defs>
    <style>
      .cls-1 {
        fill: #fff;
      }
    </style>
  </defs>
  <title>Artboard 3</title>
  <rect class="cls-1" width="248.21" height="261.74"/>
  <path d="M201,74.19a28.5,28.5,0,0,0-11.08,3.44c-7.89,5.14-20.68,1.16-22.65.93a8.26,8.26,0,0,1-4.67-2.68,15.42,15.42,0,0,0-.46-2.29,110.78,110.78,0,0,0-5-13.31,48.94,48.94,0,0,0,.52-12.46.06.06,0,0,1,0,0c-.08-1-.16-1.56-.16-1.56a15.66,15.66,0,0,0,3.17-.53c2.34-.57,5.08-1.27,6.78-1.85a7.2,7.2,0,0,0,1.8-1c2.86-1.88,6.29-7.64,11-8,1.88-.14,2.45.68,2.82,1.81.4,3-1.23,4.08-2.3,4.9s-3.27,2.69-3.27,3.84,11.86-2.5,11.86-2.5c13.6,15.65,12.78,18.59,13.11,23.61A21.43,21.43,0,0,1,201,74.19M152,209.78c.82,2.23.27,4.43-.74,6.57-.89,1.91-1.32,4.24-2.13,5a12.92,12.92,0,0,1-2.26,1.15,22.24,22.24,0,0,1-6.19.7s-4.06.15-5.63-1.95-1.72-3.92-.68-5.07,2.48,2.59,3.32,2c1.92-1.4-.06-5.55-.95-9.5-.65-4.47.73-10.16.75-10.23l.06-.24-.07-3.35,0-.85c1.67,0,4.75-1.4,7.26-2.94a19,19,0,0,0,3.16-2.3L148,195l.12,5.16.15.4Zm-21-1,1.85-3.17,1.41-2.32a23.74,23.74,0,0,0-.1,4.62c0,.43.21,1,.29,1.42L133,209Zm84.95-162.8a15.67,15.67,0,0,0-1.81-3.67C207.88,33,201.25,28,194.36,27.7h-.16l-.13,0a15.1,15.1,0,0,0-8.88,2.46,19.55,19.55,0,0,0-3.62,2.72,6.79,6.79,0,0,0-3.23.24,10.39,10.39,0,0,0-1.36.54l-.14.06c-2.72,1.35-5.25,3.92-7.33,6l-.84.83-.49.48c-1.9,1.75-7.36,2.73-10.73,3l-4-.89a97.47,97.47,0,0,0-14.39-3c-36.31-5.59-58.24,11.1-68.19,20.27a61.77,61.77,0,0,0-5.2,4.89A18.18,18.18,0,0,0,63,68c-7.56,8.31-21.63,28.46-26.42,37.62h0c-4,7.71-2,21.1-1.93,21.67,5,31.22,46.54,33.12,56.12,33.11,1,0,1.74,0,2.11,0L121.25,164l-23,50.73-3.38,7.73a4.71,4.71,0,0,0-.88,4.27c1.35,4.79,9.89,8.75,26.1,12.09a94.44,94.44,0,0,0,18.45,2.3H139c5.95,0,10.18-1.12,12.94-3.37,3.4-2.76,3.87-6.57,3.87-10.27,0-3.16-.86-5.32-2.54-6.42a4.5,4.5,0,0,0-1-.48l2.36-5.57c1.37-3-2-10.82-4.33-15.47V186.77c13.41-13.65,12.12-28.64,11.18-39.63,0-.22,0-.41,0-.62a.37.37,0,0,0,0-.11c-.19-2.29-.36-4.46-.37-6.43,0-4-.94-11-2.65-13.72-1.1-1.75-5.31-4.64-8.07-6.42,5.18-6.68,3.15-16.84,2.54-19.33.64-2.05,3.34-10.23,7.16-14.26a10.12,10.12,0,0,0,3.07-6.89,2.06,2.06,0,0,0,.41.32c4.06,1.77,10.19,2.61,15.67,2.55S189.4,81,191.33,79.46c1.46-1.15,5.63-2.52,8.33-2.89,7.37-.86,12.61-3.69,15.58-8.4,4.84-7.67,2.08-18.11.67-22.23"/>
</svg>
