<svg id="Layer_1" data-name="Layer 1" xmlns="http://www.w3.org/2000/svg" viewBox="0 0 455.18 265.34"><title>thumbnail</title><path d="M322,111.75c-5-1-18.54-7.62-18.54-7.62-20.92-18.77-55.05-1.35-54.55,0,0,0,2.15,11.08-.24,14.29-3.09,4.16-13.3,5.66-16.71,13.34-2.17,4.9-1.18,9.16.72,13.54,1,2.39,2.89,4.85,1.9,7.25-1.64,4-2,3.19-2.3,6-.64,5.2,7.29,8.86,8.81,11,1.31,1.86-.27,5.14-.9,7.41-1.65,6,9.49,9.07,21.22,12.77,3.93,1.24,1.47,12.85,9.79,19.17,1.5,4.36,8.95,20.88,37.31,27.05a27.85,27.85,0,0,0,6,.6,47.79,47.79,0,0,0,8.93-1l1.23-.25c.91-.2,1.83-.41,2.77-.66l1.18-.33c1.83-.53,3.71-1.17,5.6-1.88,1.28-.48,2.55-1,3.85-1.57.5-.23,1-.44,1.52-.68,15-6.79,32.4-18,37.5-35.17C397.24,127,336.57,114.77,322,111.75Zm-11.42,36.76c-7.12,10.25-14.64,1-14.64,1s-17.39-6.33-15.07-1.69,11.6,22.76,11.6,22.76l-5.8,12.07,6,15.09s-9.76,11.76-15.83,10.43a13.08,13.08,0,0,1-.58-1.64,3.21,3.21,0,0,0-1.11-1.61c-6.47-5.62-7.3-13.17-8-16.56-.27-1.3-.87-2.91-2.13-3.3-4.77-1.49-17.46-2.54-19.83-7-1-1.78,1.06-5.88,1.49-7.76a3.23,3.23,0,0,0-.61-2.86c-6.11-5.83-7.43-5.92-8.07-9-.41-2,1.76-4.07,2-6.64.34-4.22-6.22-15.34-3.17-19.58,2.59-3.6,15.42-8.17,16.64-12.51,1.56-5.51.23-13.77.23-13.77s3.62-1.62,4.68-2a61.1,61.1,0,0,1,7.68-2.32l5.07-1c8.27-1.06,13.13-1.16,20.65,1.91a20.46,20.46,0,0,1,7,4.89L304,129.2S321.94,132.14,310.56,148.51Z"/><path d="M45.36,117.9l-.07.82a2.79,2.79,0,0,0,4,2.75c10-4.74,20.71-8.26,22.37-7.77,1.21,1.37,3,9.59.56,17-1.35,4.12-6.47,11.35-7.38,15.66-.75,3.56-.75,18.16.94,23.24,1.55,4.62,16.57,15.64,26.81,15.64.45,0,.9,0,1.32-.06a9,9,0,0,0,6.69-3.59,7.2,7.2,0,0,0,2,1.85A5,5,0,0,0,107,184c8.74-3.39,7.22-19.72,6-36.24a211.11,211.11,0,0,0-2.82-22c-1.21-5.72-4.42-15.9-4-18.77,2.46-1,10.42-3.64,18.81-6.42,29.5-9.76,38.6-14.49,41.71-16.28,10.48-6,29.29-5.06,37.47-4.64,5.38.29,22.34.34,22.34.34A49.25,49.25,0,0,0,243,82.71a47.09,47.09,0,0,0,18.81-3.84C275.4,73,290.09,61.68,293.28,42c.86-5.32-.71-13.14-4-21.18A176.54,176.54,0,0,1,282.54,0H0V87.13a41.22,41.22,0,0,0,7.32-.58c10.47-1.79,18.11-9.2,27-18.53,2.72-2.87,24.45-19.49,35-34.7-.74,11.57-1.37,26.77.21,35.61,0,.09,1.11,9-29.75,17a2.8,2.8,0,0,0-2,1.83l-1,3s-11.85,4.51-16,5C18.18,96,12.85,92.94,0,96.85v5.07c13.72-4.26,18.94-1.81,19-1.81,5.6.35,10.92-2.38,20.18-5.13,1.59,1.76,5.44,5.94,5.73,17.29C35.46,113.58,11,117.83,2,123.93l-2,1.3V132a56.45,56.45,0,0,0,5.08-3.45C14.25,121.6,45.36,117.9,45.36,117.9ZM251.74,43.64c11.39-7.19,24.67-14.61,29.6-6.8s-1,20.81-12.4,28-26.27,13.82-31.2,6S240.34,50.84,251.74,43.64ZM100.93,101c.13,5.13,3.94,26.23,3.94,26.23s2.63,15.73,3.62,21.5c1.33,7.67,2.08,30.42-3,30.11-2.1-.13-2.81-5.49-2.62-7.05.27-2.24,1-8.55,1-8.55,0-1.38-.2-1.9-.61-2.28a4.7,4.7,0,0,0-.57-.43,2.79,2.79,0,0,0-3,0,3.68,3.68,0,0,0-1.21,2.27l-.24,1.36c-.07.48-.12,1-.15,1.52-.23,2-.59,5.29-1.19,10.08-.37,3-1.74,3.62-3.19,3.84-7.34,1.27-22.41-9.35-23.42-11.85-1.19-2.93-2.29-13.92-.54-20.44,1.06-3.94,5.84-10.38,7.06-14.28,1.71-5.45.92-17.17-.39-23-.73-3.28-3.11-11.19-3.15-11C73.29,99.1,100.79,95.89,100.93,101Z"/></svg>