<svg id="Layer_1" data-name="Layer 1" xmlns="http://www.w3.org/2000/svg" viewBox="0 0 384.92 232.77"><defs><style>.cls-1{fill:#fff;}.cls-2{fill:#1e1b1c;}</style></defs><title>thumbnail-maker</title><rect class="cls-1" width="384.92" height="232.77"/><path class="cls-2" d="M153,126.59c-.47,3.11,1.75,14.54,5.2,31.62,2,9.95,3.9,19.34,4,22.16.26,6.39,1.72,45.36,1.89,49.82a18.06,18.06,0,0,0-1.15,2.58h45.21c2.81-7.08,3.56-18.46,3.63-19.86l3.11-15.56a2.43,2.43,0,0,0,1.25.12,2,2,0,0,0,.41,2.45,2.47,2.47,0,0,0,1.84.56,6.7,6.7,0,0,0,4.28-2.65c2.16-2.58,3.74-6.82,4.69-9.93.5-1.64-.63-3.78-1.83-6a14.79,14.79,0,0,1-1.23-2.68c0-1.29-.07-14-.21-18.72a29.67,29.67,0,0,0-.39-4c-1-5.9-4.2-25.7-3.75-32.87.55-8.74-3.53-34.62-5.54-39.79a9.39,9.39,0,0,0-5.26-5.2,19.55,19.55,0,0,0,2.09-2.72,2.76,2.76,0,0,0,2.8-.36,13.16,13.16,0,0,0,3.27-4.69,7.49,7.49,0,0,1,3.46-3.42,7.61,7.61,0,0,0,1.42-.94c1.63-1.45,10.77-15.77,8.11-27.82-1.44-6.5-6-11-13.55-13.21s-13.5-2.12-17.8.55c-6.18,3.85-7.51,11.86-8.58,18.29-.3,1.85-.59,3.59-1,5-2.25,8.48-12.73,14-12.93,14.06-.86.52-21.06,12.82-25.28,21.81-2.81,6-.91,19.17.61,29.75C152.53,120.05,153.22,124.88,153,126.59Zm62.37,64.78c.3-1.6.65-3,.65-3a10.61,10.61,0,0,1-.23-2.33v0c0-.46,0-.93,0-1.42,0-2.34.22-4.79.22-4.79a27.83,27.83,0,0,0,5.47-.16l1.35-.15s2.14,4.66,2.91,6.45l.11.26a3.82,3.82,0,0,1-.19,2.43,15.91,15.91,0,0,1-1.14,2.58s-.43,1.24-1,2.59a13.2,13.2,0,0,1-1.43,2.54c-1.26,1.63-4.2,3.44-4.51,2.35a1.24,1.24,0,0,1,0-.38,7.48,7.48,0,0,1,1.56-3.09,3.53,3.53,0,0,0,.53-.91c0-.84.74-4.19.78-4.49a2,2,0,0,0-.54-1.42,6,6,0,0,0-1,1.23c-.16.34-.16.77-.63,2.3a9.3,9.3,0,0,1-1.85,3.74,2.15,2.15,0,0,1-.33.34.82.82,0,0,1-.72,0C214.7,195.66,215,193.37,215.34,191.37Zm-31.48-131a96.64,96.64,0,0,0,6.93-6.78l.55-.58s0-.17-.09-.42c-.23-1.3-.79-5.48,1.53-6.82.1-.05.18,0,.27-.08,2.92-1.26,5.17,4.55,5.17,4.55l-2.54,7.15c1.14-.59,5.95-1.66,8.29-2.79,1-.47,2.06.24,2.69,1.1,3.51,4.79,10,8,12.74,9.15.81.36,1.32.55,1.32.55l-3.91,2.71s-.28.61-.68,1.42a17.13,17.13,0,0,1-2.61,4c-.52.49-1,.7-1.42.36-.61-.51-1.72-.27-2.3,1.06a5.42,5.42,0,0,1-2.46,2.72l-.15.08a5.56,5.56,0,0,1-3.32.62,4.13,4.13,0,0,1-.65-.15C200,77.16,199.45,76,198.13,77c-1,.7-.09,2-.09,2-17.87,4.14-22.77-7.61-23.76-10.79-.15-.49-.21-.79-.21-.79S181.2,62.58,183.86,60.41ZM166.94,194c8.94,1.09,13.41-3.26,13.41-3.26a13.46,13.46,0,0,0,.84,7c.69,1.89,1.34,2.07,1.31,8.5,0,1.15.06,2.36-.91,2.57-1.14.25-1.85-1.6-1.85-1.6s1.35,6.93-.91,7.33c-1.88.33-2.47-2.14-2.47-2.14-2.17.48-7.42-2.44-9.35-3.89S166.94,194,166.94,194Z"/></svg>