<svg id="Layer_1" data-name="Layer 1" xmlns="http://www.w3.org/2000/svg" viewBox="0 0 605.58 352.21">
  <defs>
    <style>
      .cls-1 {
        fill: #ffdfa3;
      }

      .cls-2 {
        fill: #f4863b;
      }

      .cls-3 {
        fill: #d66f29;
      }

      .cls-4 {
        fill: #8cd1cd;
      }

      .cls-5 {
        fill: #6b768d;
      }

      .cls-6 {
        fill: #f7a56c;
      }

      .cls-7, .cls-8, .cls-9 {
        fill: none;
        stroke-miterlimit: 10;
      }

      .cls-7 {
        stroke: #f7a56c;
        stroke-width: 11.05px;
      }

      .cls-7, .cls-8 {
        stroke-linecap: round;
      }

      .cls-8, .cls-9 {
        stroke: #6b768d;
      }

      .cls-8 {
        stroke-width: 2.21px;
      }

      .cls-9 {
        stroke-width: 3px;
      }
    </style>
  </defs>
  <title>grit_illustration</title>
  <rect class="cls-1" width="605.58" height="352.16"/>
  <path class="cls-2" d="M0,171.65s111.72-3.38,153.87,50.9,42.49,65.89,99,64.46S350.35,236,426,260.38s63.74-95.24,179.56-84.69V352H0Z"/>
  <ellipse class="cls-3" cx="446.02" cy="307.91" rx="34.04" ry="12.47"/>
  <ellipse class="cls-3" cx="194.77" cy="307.91" rx="34.04" ry="12.47"/>
  <ellipse class="cls-3" cx="113.04" cy="286.14" rx="34.04" ry="12.47"/>
  <ellipse class="cls-3" cx="50.37" cy="225.01" rx="34.04" ry="12.47"/>
  <g>
    <g>
      <path class="cls-4" d="M354.8,219.16a5.13,5.13,0,0,0-5,4.18,74.63,74.63,0,0,0,10.1,1.67,5.66,5.66,0,0,0,.07-.72A5.13,5.13,0,0,0,354.8,219.16Z"/>
      <path class="cls-4" d="M410.72,245a5.14,5.14,0,0,0-5.13-5.14,5.08,5.08,0,0,0-2.73.8,43.68,43.68,0,0,1,3.63,9.38A5.13,5.13,0,0,0,410.72,245Z"/>
      <path class="cls-4" d="M312.82,220.51a5.15,5.15,0,0,0,5.14,5.14,4.9,4.9,0,0,0,.77-.08,94.13,94.13,0,0,0-.55-10.17l-.22,0A5.14,5.14,0,0,0,312.82,220.51Z"/>
      <path class="cls-4" d="M282.43,268a4.83,4.83,0,0,0,.14-1.15,5.14,5.14,0,0,0-10.27,0,4.92,4.92,0,0,0,.1.94A54.63,54.63,0,0,0,282.43,268Z"/>
      <path class="cls-4" d="M447.18,213.38a5.13,5.13,0,0,0-4.44-5.07,53.08,53.08,0,0,1,0,5.91,37,37,0,0,0,0,4.22A5.12,5.12,0,0,0,447.18,213.38Z"/>
      <path class="cls-4" d="M489.63,150.91a5.13,5.13,0,0,0-5.06,4.32c3.26,1.29,6.31,2.64,9.08,4a5.11,5.11,0,0,0-4-8.29Z"/>
      <path class="cls-4" d="M518.77,154.31a154.41,154.41,0,0,0-36.43-17.52,116.81,116.81,0,0,0-15.85-3.95,9.14,9.14,0,1,1-16.06-1.35c-15,.16-28.21,4.57-39.1,13.17-1.72,1.36-3.56,2.74-5.51,4.11,6.38-8.2,7.66-17.3,8.56-23.69l.15-1.11a9.13,9.13,0,1,1,11.91-12.28c4.49.33,9.89,1.81,14.58,3.11,3.39.94,6.59,1.82,9.72,2.42,17.62,3.4,28.4-11.24,31.64-19.45A8.29,8.29,0,0,0,467,91.7c0,.1-4.24,10.55-12.65,9.31a9.13,9.13,0,0,1-18-2.19,8.94,8.94,0,0,1,.3-2.27c-8.56-1.9-17.78-2.66-25.54,2-6,3.58-10.1,9.77-12.1,18.39-.44,1.87-.71,3.82-1,5.88-.24,1.71-.48,3.43-.82,5.13a9.13,9.13,0,1,1-9.4,15.25,32.93,32.93,0,0,1-6.1,3.27c-13.16,5.46-29.2,3-36.88,1.3a99.75,99.75,0,0,0,19.29-31.5c9.25-24,11.49-88.29-57-84.07-59.84,3.69-58.29,53-56.38,77.5a103.27,103.27,0,0,0,8.65,33.82c-2.17.61-4.2,1.34-6,2-7.26,2.6-10.55,3.44-13.92,1.23a9.34,9.34,0,0,1-1.84-1.53,9,9,0,0,1-2.71.41,9.13,9.13,0,0,1-.45-18.24,20.74,20.74,0,0,0-10-14,9.12,9.12,0,0,1-17.53-1.79c-4.93,1.84-10.39,6-15.85,14-4,5.9-8.56,4.37-10.34,3.43-4.49-2.35-3.18-9.47-2.41-12.42,2.07-7.94-.13-13.54-2.34-16.85-5.42-8.11-15.63-9.74-16.78-9.9a8.29,8.29,0,0,0-2.28,16.42c1.09.15,4.26,1.17,5.27,2.69.47.7.5,1.87.08,3.46-2.58,9.91-1.22,18.82,3.48,25.09a9.12,9.12,0,0,1,15.88,6.13,8.93,8.93,0,0,1-.41,2.71c9.94,1.3,18.76-4.33,23.59-11.47,3-4.48,7.35-9.42,10.8-7.5,2.41,1.34,2.82,2.53,3.11,9.06.22,4.87.53,11.51,4.62,17.49-14.06,3.59-24.06,9.71-33.79,15.68s-18.92,11.62-32.28,14.6c-10.43,2.33-21.21,1.9-30.74.42a9.13,9.13,0,1,1-17.62-4.12,109.86,109.86,0,0,1-12-4.42,8.29,8.29,0,0,0-7,15,137.07,137.07,0,0,0,44.63,11.09,9.13,9.13,0,0,1,18.23-.43,79.71,79.71,0,0,0,8.15-1.38,95.07,95.07,0,0,0,23.64-8.7A9.13,9.13,0,1,1,200,182.54c10.55-6.46,20.91-12.38,37.07-14.45,3.16-.41,6.09-.64,8.83-.74a55.11,55.11,0,0,0-12.29,3.48c-14.66,6.1-24.87,17.87-32.29,30.38a9.13,9.13,0,1,1-8.22,16.29c-2.34,5.4-4.28,10.52-6,14.95-.88,2.34-1.7,4.51-2.49,6.47-7.95,19.87-31.35,19-32.37,18.91a8.29,8.29,0,0,0-.94,16.56c.27,0,1.72.08,4,0C164.11,274,185.11,271,196.6,252a9.13,9.13,0,0,1,7.18-16.65c4.6-12.08,10.86-27.41,21-38.33a9.13,9.13,0,1,1,13.42-10.12c.59-.28,1.18-.55,1.79-.8a42.4,42.4,0,0,1,18.43-3l.35,0c.44,0,.88.06,1.32.1,10.76.92,34.52,6.12,41.56,33.86a66.57,66.57,0,0,1,.11,14.78A9.13,9.13,0,1,1,293,247.79a18.51,18.51,0,0,1-2.21,1.29c-7.35,3.64-17.6,3.39-28.86-.69a29.34,29.34,0,0,0-12.78-1.85,9,9,0,0,1,2,5.61,9.13,9.13,0,0,1-18,2.4c-8.73,9.3-10.9,23.38-11.16,25.23A8.29,8.29,0,0,0,229,289.1a8.58,8.58,0,0,0,1.51.07,8.32,8.32,0,0,0,7.85-7.12c.51-3.57,3.26-14.52,9-18,1.46-.88,4-1.84,8.84-.08a72.93,72.93,0,0,0,12.08,3.26c0-.11,0-.23,0-.35a9.14,9.14,0,0,1,18.27,0q0,.35,0,.69A40.73,40.73,0,0,0,298.08,264a35.46,35.46,0,0,0,18.4-21.67,51.83,51.83,0,0,0,2.14-12.67c-.22,0-.44,0-.66,0a9.13,9.13,0,0,1-.2-18.26c-.21-3-.25-8.51,2.09-10.27,3.36-2.51,6.46,4.5,6.46,4.5v0a25.68,25.68,0,0,0,5.35,8.31,33.29,33.29,0,0,0,14.23,8.37,9.13,9.13,0,0,1,18,2,8.77,8.77,0,0,1-.06,1c3.29.2,6.8.28,10.56.23,10.75-.14,18.71,2.88,24.35,9.22.7.8,1.35,1.64,2,2.51A9.13,9.13,0,1,1,407.4,254a82.19,82.19,0,0,1,.89,23.36,8.29,8.29,0,0,0,16.43,2.24c.2-1.44,4.58-35.3-13.49-55.74a43.42,43.42,0,0,0-4-4,9.13,9.13,0,1,1-15.69-8.59A56.51,56.51,0,0,0,374.21,209c-19.83.26-27.58-3.43-30.59-6.56-2.86-3-3.19-7.17-3.35-13.69a17.06,17.06,0,0,1,5.22,1.29l-.08-.86a71.26,71.26,0,0,0,21.4,7.71,9.13,9.13,0,0,1,18.24.53c0,.23,0,.45,0,.68a65.48,65.48,0,0,0,12.79-2,9.13,9.13,0,1,1,16.95-6.78c8.21-3,15.09-3,19.74,0,4.13,2.7,6.84,8,7.86,15a9.12,9.12,0,0,1,.9,18.16,22.78,22.78,0,0,0,7.35,13c6.95,6,16.45,6.83,22.67,6.56a44.55,44.55,0,0,0,6.25-.69A8.29,8.29,0,0,0,476.28,225a28.13,28.13,0,0,1-6.12.4,9.13,9.13,0,1,1-10.83-11.73c.66-17.56-4.87-31.1-15.68-38.22a9.13,9.13,0,0,1-17.87-2.65,8.93,8.93,0,0,1,.34-2.44c-6.82,0-15.14,1.79-25.12,6.84-10.59,5.36-24.37,5.77-36.49,2.21,1.16,0,2.32,0,3.47-.07,17.82-.77,34.91-7.47,51.56-20.11a9.13,9.13,0,1,1,12.37-8.53c0,.32,0,.64-.05.95,15.81-6.53,34.09-3.19,48.92,2.13a9.13,9.13,0,1,1,16.51,7.2,123.62,123.62,0,0,1,12.07,7,8.29,8.29,0,0,0,9.41-13.66Z"/>
      <path class="cls-4" d="M229.64,136.45a5.14,5.14,0,0,0,5.14,5.13,4.59,4.59,0,0,0,1-.1,40.34,40.34,0,0,1-.54-5.85c-.06-1.32-.13-2.77-.28-4.3l-.16,0A5.14,5.14,0,0,0,229.64,136.45Z"/>
      <path class="cls-4" d="M215.86,115.17a5.13,5.13,0,0,0,4.89-3.65,19.43,19.43,0,0,0-10-1.06A5.12,5.12,0,0,0,215.86,115.17Z"/>
      <path class="cls-4" d="M445.44,104a5.14,5.14,0,0,0,4.94-3.82c-1.57-.39-3.23-.85-4.94-1.32s-3.25-.9-4.94-1.33a4.92,4.92,0,0,0-.2,1.33A5.14,5.14,0,0,0,445.44,104Z"/>
      <path class="cls-4" d="M117.37,188.82a5.13,5.13,0,0,0,5.12-4.94c-3.52-.68-6.81-1.47-9.79-2.3a5.12,5.12,0,0,0,4.67,7.24Z"/>
      <path class="cls-4" d="M143.55,197.24a5.15,5.15,0,0,0-5.13,5.09q3.6.1,7.28,0c1,0,2-.12,3-.19A5.13,5.13,0,0,0,143.55,197.24Z"/>
      <path class="cls-4" d="M202.35,239.15a5.09,5.09,0,0,0-6.32,5,5.11,5.11,0,0,0,2.49,4.38c.54-1.11,1.07-2.24,1.55-3.44C200.79,243.28,201.55,241.28,202.35,239.15Z"/>
      <path class="cls-4" d="M399.07,136.45a5.12,5.12,0,0,0-2.92-4.61,20.74,20.74,0,0,1-5.26,8.72,5.06,5.06,0,0,0,3,1A5.14,5.14,0,0,0,399.07,136.45Z"/>
      <path class="cls-4" d="M229.35,184a5.12,5.12,0,0,0-1.52,10,43.87,43.87,0,0,1,6.64-5A5.12,5.12,0,0,0,229.35,184Z"/>
      <path class="cls-4" d="M197.56,214.65a5.12,5.12,0,0,0,1.78-9.93c-1.67,3-3.19,6.09-4.57,9.1A5.11,5.11,0,0,0,197.56,214.65Z"/>
      <path class="cls-4" d="M298.22,245.48A5.12,5.12,0,0,0,301,236c-.1.42-.2.85-.33,1.26a19.75,19.75,0,0,1-4.47,7.76A5,5,0,0,0,298.22,245.48Z"/>
      <path class="cls-4" d="M191.5,180.69a5.12,5.12,0,0,0-3.39,9c2.9-1.62,5.66-3.3,8.39-5A5.14,5.14,0,0,0,191.5,180.69Z"/>
      <path class="cls-4" d="M172.43,138.45a5.1,5.1,0,0,0-4,2,21.77,21.77,0,0,0,4.57,3.21,25.25,25.25,0,0,0,4.24,1.76,5,5,0,0,0,.35-1.83A5.13,5.13,0,0,0,172.43,138.45Z"/>
      <path class="cls-4" d="M413.06,115.6a5.12,5.12,0,0,0,2.25,4.25c.95-3.59,2.36-6,4.22-7.1a7.47,7.47,0,0,1,2.23-.82,5.12,5.12,0,0,0-8.7,3.67Z"/>
      <path class="cls-4" d="M456.35,222.56a5.12,5.12,0,0,0,9.67,2.37,10.36,10.36,0,0,1-4.54-2c-.5-.44-1.84-1.61-2.17-5A5.15,5.15,0,0,0,456.35,222.56Z"/>
      <path class="cls-4" d="M453,136.45a5.14,5.14,0,1,0,7.7-4.43c-1.46-.16-2.9-.29-4.33-.37A5.12,5.12,0,0,0,453,136.45Z"/>
      <path class="cls-4" d="M434.91,178a5.13,5.13,0,0,0,5.08-4.54,31.39,31.39,0,0,0-9.71-2.77,5.11,5.11,0,0,0,4.63,7.31Z"/>
      <path class="cls-4" d="M393.32,217.16a5.14,5.14,0,0,0,10.27,0,.68.68,0,0,0,0-.14,41.69,41.69,0,0,0-7.78-4.23A5.12,5.12,0,0,0,393.32,217.16Z"/>
      <path class="cls-4" d="M422.77,145.58a5.14,5.14,0,0,0,0,10.28,5,5,0,0,0,1.86-.37c.53-.35,1.07-.68,1.61-1a5.08,5.08,0,0,0,1.67-3.76A5.15,5.15,0,0,0,422.77,145.58Z"/>
      <path class="cls-4" d="M411,190.8a5.12,5.12,0,1,0-9.34,4.06,52.76,52.76,0,0,0,6.8-2.85C409.35,191.58,410.19,191.18,411,190.8Z"/>
      <path class="cls-4" d="M381.05,197.4a5.14,5.14,0,1,0-10.27,0s0,.08,0,.12a74,74,0,0,0,10.18.69A5.42,5.42,0,0,0,381.05,197.4Z"/>
      <path class="cls-4" d="M236.87,251.19a5,5,0,0,0-.09,1,5.14,5.14,0,1,0,7.3-4.64,24,24,0,0,0-5.28,2.38A23.25,23.25,0,0,0,236.87,251.19Z"/>
    </g>
    <g>
      <path class="cls-5" d="M469.34,280a9.41,9.41,0,0,0-7.38,6.79,9.4,9.4,0,0,0-16.68,3.06A9.4,9.4,0,0,0,428.6,293a9.43,9.43,0,1,0,1.47,8,9.4,9.4,0,0,0,16.68-3.07,9.41,9.41,0,0,0,16.69-3.06,9.42,9.42,0,1,0,5.9-14.81Z"/>
      <g>
        <path class="cls-6" d="M427.87,271.15s-.48,10.47,8.1,10.47c7.88,0,14.61-15.25,29.95-18.07,16.32-3,16.57,24.3,16.57,24.3l-72.15,13.26-4.75-25.86Z"/>
        <rect class="cls-5" x="403.94" y="270.2" width="25.49" height="3.4" transform="translate(-42.29 79.82) rotate(-10.42)"/>
      </g>
    </g>
    <g>
      <path class="cls-5" d="M507.51,190.39a9.4,9.4,0,0,0,2.57,9.69,9.4,9.4,0,0,0-5.05,16.2A9.4,9.4,0,0,0,500,232.47a9.42,9.42,0,1,0,7.79,2.43,9.41,9.41,0,0,0,5-16.2,9.4,9.4,0,0,0,5.06-16.19,9.42,9.42,0,1,0-10.36-12.12Z"/>
      <g>
        <path class="cls-6" d="M480.35,223s9,5.3,13-2.29c3.67-7-6.69-20-2.05-34.92,4.94-15.85,29.22-3.35,29.22-3.35l-21.85,70-25.1-7.83Z"/>
        <rect class="cls-5" x="463.05" y="231.51" width="25.49" height="3.4" transform="translate(111.44 617.92) rotate(-72.67)"/>
      </g>
    </g>
    <g>
      <path class="cls-5" d="M446.78,50.59a9.42,9.42,0,0,0,9.85,1.84,9.41,9.41,0,0,0,12.46,11.51,9.41,9.41,0,0,0,12.46,11.51,9.42,9.42,0,1,0,5.54-6A9.41,9.41,0,0,0,474.63,58a9.41,9.41,0,0,0-12.46-11.51,9.42,9.42,0,1,0-15.39,4.15Z"/>
      <g>
        <path class="cls-6" d="M464.54,89.1s8.67-5.89,3.53-12.75c-4.73-6.31-21-2.56-32.43-13.14-12.19-11.26,9.51-27.83,9.51-27.83L499,85.16l-17.85,19.32Z"/>
        <rect class="cls-5" x="459.1" y="95.9" width="25.49" height="3.4" transform="translate(752.18 489.49) rotate(-137.26)"/>
      </g>
    </g>
    <g>
      <path class="cls-5" d="M126.3,224.16a9.44,9.44,0,0,1-2.31,9.76A9.4,9.4,0,0,1,129.48,250,9.4,9.4,0,0,1,135,266a9.42,9.42,0,1,1-7.71,2.64,9.4,9.4,0,0,1-5.49-16.05,9.41,9.41,0,0,1-5.49-16.06,9.41,9.41,0,1,1,10-12.39Z"/>
      <g>
        <path class="cls-6" d="M154.33,256s-8.9,5.55-13.09-1.93c-3.86-6.88,6.15-20.22,1.1-35-5.37-15.7-29.3-2.56-29.3-2.56l23.74,69.41,24.88-8.51Z"/>
        <rect class="cls-5" x="146.4" y="264.4" width="25.49" height="3.4" transform="translate(-41.13 502.8) rotate(-108.88)"/>
      </g>
    </g>
    <g>
      <path class="cls-5" d="M176.52,50a9.41,9.41,0,0,1-9.22,3.93,9.41,9.41,0,0,1-9.65,14,9.4,9.4,0,0,1-9.65,14,9.41,9.41,0,1,1-6.71-4.64,9.41,9.41,0,0,1,9.65-14,9.4,9.4,0,0,1,9.65-14,9.42,9.42,0,1,1,15.93.7Z"/>
      <g>
        <path class="cls-6" d="M167.58,91.4s-9.75-3.86-6.22-11.68c3.24-7.18,19.91-7.06,28.78-19.89,9.44-13.64-15.35-25.08-15.35-25.08L133.07,95.08l21.62,15Z"/>
        <rect class="cls-5" x="149.56" y="99.59" width="25.49" height="3.4" transform="translate(-13.33 177.16) rotate(-55.33)"/>
      </g>
    </g>
    <g>
      <path class="cls-5" d="M93.64,132.1a9.41,9.41,0,0,1-7.45,6.71,9.4,9.4,0,0,1-4.61,16.32A9.4,9.4,0,0,1,77,171.46a9.41,9.41,0,1,1-7.85-2.22,9.4,9.4,0,0,1,4.62-16.32,9.4,9.4,0,0,1,4.61-16.33,9.42,9.42,0,1,1,15.29-4.49Z"/>
      <g>
        <path class="cls-6" d="M98.61,174.21s-10.48-.49-9.67-9c.74-7.85,16.55-13.13,20.79-28.14,4.51-16-22.64-18.76-22.64-18.76l-20,70.59L92.45,196Z"/>
        <rect class="cls-5" x="84.07" y="183.58" width="25.49" height="3.4" transform="translate(-107.8 228.08) rotate(-74.23)"/>
      </g>
    </g>
    <g>
      <path class="cls-5" d="M548.31,122a9.42,9.42,0,0,0,.83,10A9.4,9.4,0,0,0,541.32,147a9.4,9.4,0,0,0-7.82,15.05,9.43,9.43,0,1,0,7.23,3.76,9.4,9.4,0,0,0,7.83-15.05,9.4,9.4,0,0,0,7.82-15A9.42,9.42,0,1,0,548.31,122Z"/>
      <g>
        <path class="cls-6" d="M515.85,149.27s8,6.81,13.23,0c4.83-6.22-3.07-20.91,4.12-34.74,7.65-14.73,29.35,1.83,29.35,1.83l-33.82,65.1L505.4,169.38Z"/>
        <rect class="cls-5" x="496.82" y="156.86" width="25.49" height="3.4" transform="translate(133.94 537.64) rotate(-62.55)"/>
      </g>
    </g>
    <g>
      <path class="cls-5" d="M180.31,261a9.4,9.4,0,0,1,4.64,8.88,9.41,9.41,0,0,1,14.66,8.54A9.4,9.4,0,0,1,214.27,287a9.41,9.41,0,1,1-4.11,7.05,9.41,9.41,0,0,1-14.65-8.54A9.4,9.4,0,0,1,180.85,277a9.42,9.42,0,1,1-.54-15.93Z"/>
      <g>
        <path class="cls-6" d="M222.33,266.73s-3.09,10-11.16,7.11c-7.41-2.67-8.59-19.3-22.06-27.15-14.34-8.35-23.82,17.25-23.82,17.25l63.39,36.92,13.23-22.72Z"/>
        <rect class="cls-5" x="219.86" y="269.53" width="25.49" height="3.4" transform="translate(297.1 622.66) rotate(-149.78)"/>
      </g>
    </g>
    <path class="cls-4" d="M341.74,199.57s-2.52-6.4,1.07-8.73c2.41-1.57,6.45.68,8.41,1.22L345.1,181l-11.84,9.35Z"/>
    <g>
      <path class="cls-1" d="M308.09,104.7a13.89,13.89,0,0,1-25.16,8.72,8.32,8.32,0,1,0-.66-15.23,13.89,13.89,0,0,1,25.82,6.51Z"/>
      <path class="cls-5" d="M294.21,105.3a8.3,8.3,0,0,1-11.28,8.12,13.87,13.87,0,0,1-.66-15.23,8.2,8.2,0,0,1,3.28-.84A8.31,8.31,0,0,1,294.21,105.3Z"/>
    </g>
    <g>
      <path class="cls-1" d="M332.5,103.64a13.89,13.89,0,0,1-25.16,8.72,8.1,8.1,0,0,0,3.34.55,8.32,8.32,0,1,0-4-15.78,13.9,13.9,0,0,1,25.82,6.51Z"/>
      <path class="cls-5" d="M318.62,104.24a8.31,8.31,0,0,1-7.94,8.67,8.1,8.1,0,0,1-3.34-.55,13.87,13.87,0,0,1-.66-15.23,8.29,8.29,0,0,1,11.94,7.11Z"/>
    </g>
    <path class="cls-7" d="M281.36,129.92s11.14,11.64,27.87,9.51,20.13-11.59,20.13-11.59"/>
    <path class="cls-8" d="M281.36,129.92s11.14,11.64,27.87,9.51,20.13-11.59,20.13-11.59"/>
    <circle class="cls-5" cx="481.41" cy="89.64" r="6.36"/>
    <circle class="cls-5" cx="524.77" cy="166.46" r="6.36"/>
    <circle class="cls-5" cx="492.27" cy="238.28" r="6.36"/>
    <circle class="cls-5" cx="419.68" cy="289.42" r="6.36"/>
    <circle class="cls-5" cx="222.22" cy="286.14" r="6.36"/>
    <circle class="cls-5" cx="143.77" cy="271.36" r="6.36"/>
    <circle class="cls-5" cx="79.96" cy="181.54" r="6.36"/>
    <circle class="cls-5" cx="148.34" cy="92.33" r="6.36"/>
    <path class="cls-9" d="M452.15,75.87s8.14-12.37,10.64-10.76-7.32,13.39-3.48,14.1,10.26-7.13,10.26-7.13"/>
    <line class="cls-9" x1="526.92" y1="142.29" x2="532.74" y2="149.87"/>
    <line class="cls-9" x1="524" y1="146.08" x2="529.83" y2="153.66"/>
    <path class="cls-9" d="M495.69,219.07c-2.17-.27-11.62-1.89-6.86-5.5s7.21,17.49,12.93,11.48C505.78,220.83,497.85,219.33,495.69,219.07Z"/>
    <path class="cls-9" d="M437.56,285.49s-2.46-7.05,0-8,3.69,6.44,6.48,5.29-2.5-7.05.49-9.05,6.43,5.06,6.43,5.06"/>
    <line class="cls-9" x1="205.88" y1="276.22" x2="208.3" y2="267.66"/>
    <line class="cls-9" x1="213.22" y1="269.6" x2="211.13" y2="277.84"/>
    <path class="cls-9" d="M140.51,250.5c2.43.69,3.86,2.67,6.18,1.29s.73-6.63-3.21-4.26c-4.6,2.76-2.7,6.05-5.82,7.72s-6.31-2.56-2.35-4.54A6.76,6.76,0,0,1,140.51,250.5Z"/>
    <path class="cls-9" d="M94.8,167.49S84.56,170,84.42,164.75s7.19.78,9.58-3-6.91-4.59-6.91-4.59"/>
    <line class="cls-9" x1="157.22" y1="77.85" x2="164.57" y2="81.93"/>
    <line class="cls-9" x1="160.89" y1="73.77" x2="168.24" y2="77.85"/>
  </g>
  <ellipse class="cls-3" cx="531.13" cy="281.99" rx="34.04" ry="12.47"/>
  <ellipse class="cls-3" cx="557.83" cy="233.21" rx="34.04" ry="12.47"/>
</svg>
