<svg id="Layer_1" data-name="Layer 1" xmlns="http://www.w3.org/2000/svg" xmlns:xlink="http://www.w3.org/1999/xlink" viewBox="0 0 605.58 349.58">
  <defs>
    <style>
      .cls-1, .cls-10, .cls-12, .cls-13, .cls-8 {
        fill: none;
      }

      .cls-2 {
        fill: #8cd1cd;
      }

      .cls-3 {
        fill: #d9797a;
      }

      .cls-4 {
        fill: #4fc2bc;
      }

      .cls-5 {
        fill: #3c9992;
      }

      .cls-6 {
        fill: #182144;
      }

      .cls-7 {
        fill: #f5f6fc;
      }

      .cls-8 {
        stroke: #182144;
      }

      .cls-10, .cls-11, .cls-13, .cls-8 {
        stroke-miterlimit: 10;
      }

      .cls-10, .cls-8 {
        stroke-width: 3.3px;
      }

      .cls-9 {
        clip-path: url(#clip-path);
      }

      .cls-10 {
        stroke: #f7a4a5;
        stroke-linecap: round;
      }

      .cls-11 {
        fill: #231f20;
        stroke-width: 3.41px;
      }

      .cls-11, .cls-12, .cls-13 {
        stroke: #fff;
      }

      .cls-12 {
        stroke-linejoin: bevel;
      }

      .cls-12, .cls-13 {
        stroke-width: 5px;
      }
    </style>
    <clipPath id="clip-path">
      <path class="cls-1" d="M441.81,307.36H411.33s-1.16-11.43,1.86-29.7c3.92-23.67-12-30.07-12-30.07,1.42.14,2.85.33,4.29.6C460.31,258.22,441.81,307.36,441.81,307.36Z"/>
    </clipPath>
  </defs>
  <title>grit_illustration2</title>
  <rect class="cls-2" width="605.58" height="313.64"/>
  <path class="cls-3" d="M492.83,185.93V167.15l20.29,8.42s22.11-17.62,41.65-9.17c15.42,6.67,15.68,18.11,15.68,18.11Z"/>
  <g>
    <path class="cls-4" d="M45.22,151.41H154.43l-6.39,32H45.22a16,16,0,0,1,0-32Z"/>
    <path class="cls-4" d="M325.14,136.22a25.64,25.64,0,0,1-25.63,25.63h-38a16,16,0,0,1-15,21.56H188.33L212,110.59h87.49A25.63,25.63,0,0,1,325.14,136.22Z"/>
    <path class="cls-5" d="M212,110.59l-23.69,72.82H148l6.39-32h24.42a25.63,25.63,0,0,1,20.64-40.82Z"/>
  </g>
  <g>
    <path class="cls-4" d="M400.88,72.91h87.73l-10,35.71H445.06a11.49,11.49,0,0,1-6.87-20.71H400.88a7.5,7.5,0,0,1,0-15Z"/>
    <path class="cls-4" d="M556.58,97.12a11.5,11.5,0,0,1-11.5,11.5H493.63l16.81-23h34.64A11.5,11.5,0,0,1,556.58,97.12Z"/>
    <path class="cls-5" d="M512.55,80.41a7.3,7.3,0,0,1-.74,3.23l-1.37,2-16.81,23H478.57l10-35.71h16.44A7.5,7.5,0,0,1,512.55,80.41Z"/>
  </g>
  <path class="cls-4" d="M508.92,98.32a7.31,7.31,0,0,1-1.37,2Z"/>
  <path class="cls-3" d="M490.7,125.15c-.47-.63-4.87-6.43-17.06-14.65-7.44-5-16-7.72-23.56-9.16a131.65,131.65,0,0,1-27.93-8.76c-12.37-5.38-32.33-14-64.38-27.79-96.35-41.41-109,67.62-134.38,134.39S78.86,307.36,78.86,307.36H411.33s-1.16-11.43,1.86-29.7c3.92-23.67-12-30.07-12-30.07a54.56,54.56,0,0,0-12.72.34h0s-3-21.63-18-14.35c-11.23,5.46-6.68,16.14-3.7,21.13-27.47,12.87-50.42,38.16-62.28,38.66-14.55.62-4.86-35.7-1.63-46.64,17.06-53.18,11.3-111.82,16.07-136.3,5.67-29.06,72.43-1.52,93.84,8.13a8.37,8.37,0,0,0,2.06,3l3,2.77a12.81,12.81,0,0,0,1,.83l.9.69c.6.44,1.2.86,1.81,1.27,1.11.73,2.26,1.42,3.44,2.05h0c.39.17.77.35,1.16.5a33.85,33.85,0,0,0,8.39,2.28,25.49,25.49,0,0,0,4.5.16,20.38,20.38,0,0,0,4.51-.8,17.93,17.93,0,0,0,7.56-4.62,2.38,2.38,0,0,0,.64-2.22,2.43,2.43,0,0,0-1.84-1.8,2.4,2.4,0,0,0-1.81.33l-.16.11a12.13,12.13,0,0,1-5.82,2,14.5,14.5,0,0,1-6-.92,25.11,25.11,0,0,1-5.38-2.74,1.11,1.11,0,0,1-.33-1.51v0a1.12,1.12,0,0,1,1.52-.38,37.34,37.34,0,0,0,4.91,2.59,12.65,12.65,0,0,0,5.1.8,10.14,10.14,0,0,0,4.78-1.68l.19-.12a4.19,4.19,0,0,1,1.73-.68,4.6,4.6,0,0,1,4,7.83,20.32,20.32,0,0,1-8.46,5.13c-.32.1-.65.19-1,.27h0l1.29,2.3c1.21,2.1,2.49,4.16,3.84,6.21s2.81,4,4.38,6c.79,1,1.64,1.94,2.52,2.91.46.47.92.94,1.43,1.43l.79.73.46.39.47.38a5.3,5.3,0,0,0,6.56-.1c.14-.13.26-.26.38-.39a4.46,4.46,0,0,0,.25-5.26,33.67,33.67,0,0,0-4.25-5.43c-5.26-5.4-6.79-9.94-6.86-10.13a1.65,1.65,0,0,1,3.14-1s1.4,4.05,6.09,8.86a37.26,37.26,0,0,1,5.8,7.87,12.36,12.36,0,0,0,1.95,2.6h0a3.9,3.9,0,0,0,5.17.4,3.62,3.62,0,0,0,1.36-4.31,19.66,19.66,0,0,0-4.13-4.92c-4.78-4.62-10.47-12.78-10.71-13.13a1.65,1.65,0,0,1,2.7-1.88c.06.08,5.75,8.24,10.3,12.64a40.1,40.1,0,0,1,2.74,2.93,4.13,4.13,0,0,0,3.51,1.58A4.23,4.23,0,0,0,485,143a4.37,4.37,0,0,0,0-5.79l-1.34-1.54a81,81,0,0,0-8.07-7.64c-1.9-1.39-8-7.51-8.67-8.2a1.65,1.65,0,0,1,2.35-2.32c1.81,1.83,6.84,6.81,8.27,7.86,2.22,1.63,7.24,7.72,9.83,7.55a4.43,4.43,0,0,0,2.21-.9A5,5,0,0,0,490.7,125.15Z"/>
  <circle class="cls-6" cx="394.98" cy="299.05" r="12.59"/>
  <path class="cls-7" d="M441.81,307.36H411.33s-1.16-11.43,1.86-29.7c3.92-23.67-12-30.07-12-30.07,1.42.14,2.85.33,4.29.6C460.31,258.22,441.81,307.36,441.81,307.36Z"/>
  <path class="cls-8" d="M365.23,288.58s-5.85,8.45-5.85,23.06"/>
  <rect class="cls-2" y="307.74" width="605.58" height="41.72"/>
  <g class="cls-9">
    <g>
      <line class="cls-10" x1="411.68" y1="265.58" x2="418.53" y2="260.19"/>
      <line class="cls-10" x1="424.53" y1="271.58" x2="429.31" y2="274.03"/>
      <line class="cls-10" x1="421.72" y1="288.47" x2="426.92" y2="285.78"/>
      <line class="cls-10" x1="437.88" y1="285.78" x2="436.9" y2="278.92"/>
      <line class="cls-10" x1="412.17" y1="278.68" x2="418.53" y2="282.35"/>
      <line class="cls-10" x1="430.17" y1="263.62" x2="433.1" y2="255.9"/>
      <line class="cls-10" x1="413.88" y1="254.19" x2="415.11" y2="250.57"/>
      <line class="cls-10" x1="430.96" y1="294.87" x2="435.25" y2="296.83"/>
      <line class="cls-10" x1="417.11" y1="295.3" x2="422.98" y2="298.36"/>
      <line class="cls-10" x1="429.31" y1="304.27" x2="430.17" y2="311.13"/>
      <line class="cls-10" x1="437.88" y1="304.27" x2="444.12" y2="301.85"/>
      <line class="cls-10" x1="407.94" y1="305.72" x2="415.41" y2="302.82"/>
    </g>
  </g>
  <path class="cls-4" d="M95.87,237.31h36.24l-22.33,70.93H25.38a18.5,18.5,0,0,1,0-37h54a21,21,0,0,1,16.52-33.93Z"/>
  <path class="cls-4" d="M245.21,289.74a18.5,18.5,0,0,1-18.5,18.5h-92l29.1-70.93h32a21,21,0,0,1,16.53,33.93h14.29A18.5,18.5,0,0,1,245.21,289.74Z"/>
  <polygon class="cls-5" points="163.84 237.31 134.74 308.24 109.78 308.24 132.11 237.31 163.84 237.31"/>
  <path class="cls-2" d="M0,234.55S25.28,281.94,73.63,284c72.26,3,90.09,23.68,118.59,25.16H0Z"/>
  <path class="cls-8" d="M391.35,244.25s10,2.86,3.63,6.24c-4.33,2.32-6.67,7-3.63,14.51,4.26,10.5,1.39,23.58,1.39,23.58"/>
  <path class="cls-3" d="M54.81,84.23V67.46L75.1,75.88s22.11-17.63,41.65-9.18c15.42,6.67,15.68,16.12,15.68,16.12Z"/>
  <circle class="cls-11" cx="113.69" cy="79.98" r="5.6"/>
  <circle class="cls-11" cx="551.35" cy="179.41" r="5.6"/>
  <path class="cls-2" d="M54.81,81.53s3.82,3.79,12.32,1.72,11.78-3,19.08-.55,10.14-1.88,17.14-2,8.66,3.56,16,1.58,8.37-3.34,13.13-2.08V91.45H54.16Z"/>
  <path class="cls-2" d="M492.83,182.23s3.82,3.78,12.32,1.71,11.78-3,19.08-.54,10.15-1.88,17.14-2,8.66,3.56,16,1.58,10.36-3.35,15.12-2.08v10.89H492.19Z"/>
  <g>
    <path class="cls-4" d="M414.25,193.51h34.47l-14.26,42H414.25a21,21,0,0,1,0-42Z"/>
    <path class="cls-4" d="M592.4,248.75a18.5,18.5,0,0,1-18.5,18.5H468l39.11-73.74h7.14a21,21,0,0,1,13.86,36.74H573.9A18.5,18.5,0,0,1,592.4,248.75Z"/>
    <path class="cls-5" d="M507.13,193.51,468,267.25H457.63a18.49,18.49,0,0,1-12.9-31.74H434.46l14.26-42Z"/>
  </g>
  <path class="cls-2" d="M605.58,307.74H344.38c28.5-1.47,59.16-18.45,125-7.55l133.19-3.63Z"/>
  <path class="cls-12" d="M134.74,128.49s.52-35.8,23.69-35.8S179,122.62,179,122.62s.51-29.93,20.59-29.93c16.12,0,13,30.94,13,30.94"/>
  <path class="cls-13" d="M355.24,203.21s.75-27.65,14.81-27.65,12.86,25.93,12.86,25.93-1.79-27.68,14-27.68,12.67,28.28,12.67,28.28"/>
</svg>
